<svg id="_001-facebook" data-name="001-facebook" xmlns="http://www.w3.org/2000/svg" width="31.648" height="31.648" viewBox="0 0 31.648 31.648">
  <path id="Path_281" data-name="Path 281" d="M291.252,508.668q-.2.032-.4.059Q291.054,508.7,291.252,508.668Zm0,0" transform="translate(-272.876 -477.226)" fill="#fecd0f"/>
  <path id="Path_282" data-name="Path 282" d="M299.529,507.793l-.189.033Zm0,0" transform="translate(-280.836 -476.405)" fill="#fecd0f"/>
  <path id="Path_283" data-name="Path 283" d="M278.075,510.34q-.231.026-.465.046Q277.843,510.366,278.075,510.34Zm0,0" transform="translate(-260.45 -478.794)" fill="#fecd0f"/>
  <path id="Path_284" data-name="Path 284" d="M286.669,509.738l-.223.028Zm0,0" transform="translate(-268.739 -478.229)" fill="#fecd0f"/>
  <path id="Path_285" data-name="Path 285" d="M306.831,506.41l-.167.035Zm0,0" transform="translate(-287.708 -475.107)" fill="#fecd0f"/>
  <path id="Path_286" data-name="Path 286" d="M324.619,502.113l-.135.037Zm0,0" transform="translate(-304.427 -471.076)" fill="#fecd0f"/>
  <path id="Path_287" data-name="Path 287" d="M319.206,503.543l-.147.038Zm0,0" transform="translate(-299.337 -472.417)" fill="#fecd0f"/>
  <path id="Path_288" data-name="Path 288" d="M312.223,505.254l-.156.035Zm0,0" transform="translate(-292.777 -474.022)" fill="#fecd0f"/>
  <path id="Path_289" data-name="Path 289" d="M273.73,511.09l-.25.019Zm0,0" transform="translate(-256.575 -479.498)" fill="#fecd0f"/>
  <path id="Path_290" data-name="Path 290" d="M31.648,15.824A15.824,15.824,0,1,0,15.824,31.648c.093,0,.185,0,.278,0V19.326H12.7V15.364h3.4V12.449c0-3.381,2.064-5.222,5.081-5.222a27.986,27.986,0,0,1,3.048.156v3.534h-2.08c-1.641,0-1.959.78-1.959,1.924v2.523h3.924L23.6,19.326H20.192V31.037A15.833,15.833,0,0,0,31.648,15.824Zm0,0" fill="#fecd0f"/>
  <path id="Path_291" data-name="Path 291" d="M265.387,511.43q-.247.016-.5.025Q265.139,511.446,265.387,511.43Zm0,0" transform="translate(-248.517 -479.817)" fill="#fecd0f"/>
  <path id="Path_292" data-name="Path 292" d="M260.767,511.836l-.263.007Zm0,0" transform="translate(-244.401 -480.198)" fill="#fecd0f"/>
</svg>
