<svg xmlns="http://www.w3.org/2000/svg" width="31.648" height="31.648" viewBox="0 0 31.648 31.648">
  <path id="_002-twitter" data-name="002-twitter" d="M15.824,0A15.824,15.824,0,1,0,31.648,15.824,15.826,15.826,0,0,0,15.824,0Zm2.042,24.76c-3.894.067-5.369-2.774-5.369-4.774v-5.84H10.687V11.838A5.469,5.469,0,0,0,14.2,7.02a.141.141,0,0,1,.129-.134h2.618V11.44h3.577v2.707h-3.59v5.564a1.568,1.568,0,0,0,1.72,1.762,4.206,4.206,0,0,0,1.442-.308l.86,2.549a4.758,4.758,0,0,1-3.1,1.047Zm0,0" fill="#05bfce"/>
</svg>
