<svg id="_003-whatsapp" data-name="003-whatsapp" xmlns="http://www.w3.org/2000/svg" width="31.648" height="31.648" viewBox="0 0 31.648 31.648">
  <path id="Path_293" data-name="Path 293" d="M15.824,0A15.824,15.824,0,1,0,31.648,15.824,15.826,15.826,0,0,0,15.824,0Zm.335,25.038h0a9.467,9.467,0,0,1-4.526-1.152L6.609,25.2,7.953,20.3a9.472,9.472,0,1,1,8.207,4.742Zm0,0" fill="#95bf15"/>
  <path id="Path_294" data-name="Path 294" d="M141.946,124.469a7.873,7.873,0,0,0-6.672,12.057l.187.3-.8,2.9,2.979-.781.288.17a7.859,7.859,0,0,0,4.007,1.1h0a7.872,7.872,0,0,0,0-15.745Zm4.63,11.252a2.438,2.438,0,0,1-1.6,1.125,3.248,3.248,0,0,1-1.491-.094,13.666,13.666,0,0,1-1.349-.5,10.548,10.548,0,0,1-4.042-3.572,4.6,4.6,0,0,1-.966-2.447,2.653,2.653,0,0,1,.828-1.973.87.87,0,0,1,.631-.3c.158,0,.316,0,.453.008s.34-.055.532.406.671,1.638.73,1.756a.436.436,0,0,1,.02.415,6.74,6.74,0,0,1-.592.809c-.105.13-.242.246-.1.483a7.133,7.133,0,0,0,1.316,1.639,6.469,6.469,0,0,0,1.9,1.174c.236.118.375.1.513-.059s.592-.691.749-.928.316-.2.532-.118,1.38.651,1.617.77.394.178.453.276a1.974,1.974,0,0,1-.138,1.125Zm0,0" transform="translate(-125.784 -116.775)" fill="#95bf15"/>
</svg>
