<svg id="_011-instagram" data-name="011-instagram" xmlns="http://www.w3.org/2000/svg" width="31.648" height="31.648" viewBox="0 0 31.648 31.648">
  <path id="Path_295" data-name="Path 295" d="M213.058,210.029A3.029,3.029,0,1,1,210.029,207,3.029,3.029,0,0,1,213.058,210.029Zm0,0" transform="translate(-194.205 -194.205)" fill="#ee1800"/>
  <path id="Path_296" data-name="Path 296" d="M150.018,137.579a3.009,3.009,0,0,0-1.724-1.725,5.027,5.027,0,0,0-1.687-.313c-.958-.044-1.246-.053-3.672-.053s-2.714.009-3.672.053a5.031,5.031,0,0,0-1.687.313,3.01,3.01,0,0,0-1.725,1.725,5.029,5.029,0,0,0-.313,1.687c-.044.958-.053,1.245-.053,3.672s.009,2.714.053,3.672a5.027,5.027,0,0,0,.313,1.687,3.009,3.009,0,0,0,1.724,1.724,5.021,5.021,0,0,0,1.687.313c.958.044,1.245.053,3.672.053s2.714-.009,3.672-.053a5.021,5.021,0,0,0,1.687-.313,3.009,3.009,0,0,0,1.724-1.724,5.032,5.032,0,0,0,.313-1.687c.044-.958.053-1.246.053-3.672s-.009-2.714-.053-3.672A5.021,5.021,0,0,0,150.018,137.579ZM142.934,147.6a4.666,4.666,0,1,1,4.666-4.666A4.666,4.666,0,0,1,142.934,147.6Zm4.85-8.426a1.09,1.09,0,1,1,1.09-1.09A1.09,1.09,0,0,1,147.785,139.178Zm0,0" transform="translate(-127.11 -127.114)" fill="#ee1800"/>
  <path id="Path_297" data-name="Path 297" d="M15.824,0A15.824,15.824,0,1,0,31.648,15.824,15.826,15.826,0,0,0,15.824,0Zm9.032,19.57a6.667,6.667,0,0,1-.422,2.206,4.646,4.646,0,0,1-2.657,2.657,6.671,6.671,0,0,1-2.205.422c-.969.044-1.279.055-3.746.055s-2.777-.011-3.746-.055a6.671,6.671,0,0,1-2.205-.422,4.646,4.646,0,0,1-2.657-2.657,6.665,6.665,0,0,1-.422-2.205c-.045-.969-.055-1.279-.055-3.746s.01-2.777.055-3.746a6.667,6.667,0,0,1,.422-2.206A4.649,4.649,0,0,1,9.872,7.215a6.673,6.673,0,0,1,2.206-.422c.969-.044,1.279-.055,3.746-.055s2.777.011,3.746.055a6.674,6.674,0,0,1,2.206.422,4.647,4.647,0,0,1,2.657,2.658,6.666,6.666,0,0,1,.423,2.206c.044.969.055,1.279.055,3.746S24.9,18.6,24.856,19.57Zm0,0" fill="#ee1800"/>
</svg>
