<svg id="Group_10" data-name="Group 10" xmlns="http://www.w3.org/2000/svg" width="242.371" height="184.006" viewBox="0 0 242.371 184.006">
  <path id="Path_207" data-name="Path 207" d="M175.8,185.187C123.635,181.217,61.423,140.8,64.59,99.176s63.42-80.365,115.587-76.4,82.2,81.751,79.029,123.371S227.969,189.157,175.8,185.187Z" transform="translate(-58.54 -22.5)" fill="#f2f2f2"/>
  <ellipse id="Ellipse_26" data-name="Ellipse 26" cx="108.897" cy="6.672" rx="108.897" ry="6.672" transform="translate(12.739 156.029)" fill="#3f3d56"/>
  <ellipse id="Ellipse_27" data-name="Ellipse 27" cx="92.756" cy="4.412" rx="92.756" ry="4.412" transform="translate(28.88 158.181)" opacity="0.1"/>
  <ellipse id="Ellipse_28" data-name="Ellipse 28" cx="45.667" cy="3.981" rx="45.667" ry="3.981" transform="translate(0 176.044)" fill="#3f3d56"/>
  <ellipse id="Ellipse_29" data-name="Ellipse 29" cx="38.898" cy="2.633" rx="38.898" ry="2.633" transform="translate(6.769 177.328)" opacity="0.1"/>
  <rect id="Rectangle_557" data-name="Rectangle 557" width="161.84" height="126.975" transform="translate(42.223 34.864)" fill="#3f3d56"/>
  <path id="Path_208" data-name="Path 208" d="M453.183,261.6H413.257a.485.485,0,0,1,0-.969h39.926a.485.485,0,0,1,0,.969Z" transform="translate(-331.881 -209.378)" fill="#f2f2f2"/>
  <path id="Path_209" data-name="Path 209" d="M572.864,286.361h-62.8a.485.485,0,0,1,0-.969h62.8a.485.485,0,1,1,0,.969Z" transform="translate(-407.857 -228.814)" fill="#f2f2f2"/>
  <path id="Path_210" data-name="Path 210" d="M454.083,311.127H414.157a.485.485,0,0,1,0-.969h39.926a.485.485,0,1,1,0,.969Z" transform="translate(-332.587 -248.251)" fill="#f2f2f2"/>
  <path id="Path_211" data-name="Path 211" d="M656.261,311.577H616.335a.485.485,0,1,1,0-.969h39.926a.485.485,0,1,1,0,.969Z" transform="translate(-491.254 -248.604)" fill="#f2f2f2"/>
  <path id="Path_212" data-name="Path 212" d="M454.533,335.892H414.607a.485.485,0,0,1,0-.969h39.926a.485.485,0,0,1,0,.969Z" transform="translate(-332.94 -267.686)" fill="#f2f2f2"/>
  <path id="Path_213" data-name="Path 213" d="M454.984,360.658H415.058a.485.485,0,0,1,0-.969h39.926a.485.485,0,1,1,0,.969Z" transform="translate(-333.294 -287.122)" fill="#f2f2f2"/>
  <path id="Path_214" data-name="Path 214" d="M643.08,262.045H631.645a.485.485,0,1,1,0-.969H643.08a.485.485,0,1,1,0,.969Z" transform="translate(-503.269 -209.732)" fill="#f2f2f2"/>
  <path id="Path_215" data-name="Path 215" d="M643.08,335.892H631.645a.485.485,0,1,1,0-.969H643.08a.485.485,0,1,1,0,.969Z" transform="translate(-503.269 -267.686)" fill="#f2f2f2"/>
  <path id="Path_216" data-name="Path 216" d="M643.08,360.208H631.645a.485.485,0,0,1,0-.969H643.08a.485.485,0,1,1,0,.969Z" transform="translate(-503.269 -286.769)" fill="#f2f2f2"/>
  <path id="Path_217" data-name="Path 217" d="M732.237,360.208H720.8a.485.485,0,1,1,0-.969h11.435a.485.485,0,0,1,0,.969Z" transform="translate(-573.238 -286.769)" fill="#f2f2f2"/>
  <path id="Path_218" data-name="Path 218" d="M424.241,286.361H412.806a.485.485,0,0,1,0-.969h11.435a.485.485,0,1,1,0,.969Z" transform="translate(-331.527 -228.814)" fill="#f2f2f2"/>
  <path id="Path_219" data-name="Path 219" d="M453.408,626.327H413.482a.485.485,0,1,1,0-.969h39.926a.485.485,0,1,1,0,.969Z" transform="translate(-332.057 -495.616)" fill="#f2f2f2"/>
  <path id="Path_220" data-name="Path 220" d="M452.507,675.858H412.581a.485.485,0,1,1,0-.969h39.926a.485.485,0,1,1,0,.969Z" transform="translate(-331.35 -534.487)" fill="#f2f2f2"/>
  <path id="Path_221" data-name="Path 221" d="M452.957,700.624H413.031a.485.485,0,0,1,0-.969h39.926a.485.485,0,0,1,0,.969Z" transform="translate(-331.704 -553.923)" fill="#f2f2f2"/>
  <path id="Path_222" data-name="Path 222" d="M636.1,676.308H624.666a.485.485,0,1,1,0-.969H636.1a.485.485,0,0,1,0,.969Z" transform="translate(-497.792 -534.84)" fill="#f2f2f2"/>
  <path id="Path_223" data-name="Path 223" d="M636.1,700.624H624.666a.485.485,0,0,1,0-.969H636.1a.485.485,0,0,1,0,.969Z" transform="translate(-497.792 -553.923)" fill="#f2f2f2"/>
  <path id="Path_224" data-name="Path 224" d="M725.257,676.308H713.822a.485.485,0,1,1,0-.969h11.435a.485.485,0,0,1,0,.969Z" transform="translate(-567.761 -534.84)" fill="#f2f2f2"/>
  <path id="Path_225" data-name="Path 225" d="M573.089,651.092h-62.8a.485.485,0,1,1,0-.969h62.8a.485.485,0,1,1,0,.969Z" transform="translate(-408.034 -515.051)" fill="#f2f2f2"/>
  <path id="Path_226" data-name="Path 226" d="M424.466,651.092H413.031a.485.485,0,0,1,0-.969h11.435a.485.485,0,0,1,0,.969Z" transform="translate(-331.704 -515.051)" fill="#f2f2f2"/>
  <path id="Path_227" data-name="Path 227" d="M573.089,725.84h-62.8a.485.485,0,0,1,0-.969h62.8a.485.485,0,0,1,0,.969Z" transform="translate(-408.034 -573.712)" fill="#f2f2f2"/>
  <path id="Path_228" data-name="Path 228" d="M424.466,725.84H413.031a.485.485,0,0,1,0-.969h11.435a.485.485,0,0,1,0,.969Z" transform="translate(-331.704 -573.712)" fill="#f2f2f2"/>
  <path id="Path_229" data-name="Path 229" d="M462.519,401.13l-15.505,15.311,15.505,15.311,3.489-3.489-11.726-11.726L466.1,404.715Z" transform="translate(-350.811 -314.802)" fill="#05bfce"/>
  <path id="Path_230" data-name="Path 230" d="M612.252,401.13l15.505,15.311-15.505,15.311-3.489-3.489,11.726-11.726-11.823-11.823Z" transform="translate(-477.674 -314.802)" fill="#05bfce"/>
  <circle id="Ellipse_30" data-name="Ellipse 30" cx="1.937" cy="1.937" r="1.937" transform="translate(44.591 36.156)" fill="#05bfce"/>
  <circle id="Ellipse_31" data-name="Ellipse 31" cx="1.937" cy="1.937" r="1.937" transform="translate(49.756 36.156)" fill="#05bfce"/>
  <circle id="Ellipse_32" data-name="Ellipse 32" cx="1.937" cy="1.937" r="1.937" transform="translate(54.921 36.156)" fill="#05bfce"/>
  <rect id="Rectangle_558" data-name="Rectangle 558" width="161.84" height="0.646" transform="translate(42.223 41.321)" opacity="0.1"/>
  <path id="Path_231" data-name="Path 231" d="M1030.194,516.24c0,13.724-8.159,18.516-18.223,18.516s-18.223-4.792-18.223-18.516,18.223-31.184,18.223-31.184S1030.194,502.515,1030.194,516.24Z" transform="translate(-787.823 -385.508)" fill="#f2f2f2"/>
  <path id="Path_232" data-name="Path 232" d="M1011.724,510.157l.187-11.486,7.767-14.21-7.737,12.408.084-5.165,5.352-10.28-5.331,8.914h0l.151-9.289,5.733-8.185-5.71,6.724.095-17.032-.592,22.548.047-.93-5.828-8.921,5.735,10.706-.544,10.374-.015-.275-6.719-9.388,6.7,10.361-.067,1.3-.013.02.006.107-1.377,26.32h1.84l.22-13.595,6.682-10.335Z" transform="translate(-788.241 -363.008)" fill="#3f3d56"/>
  <path id="Path_233" data-name="Path 233" d="M136.716,768.983a9.287,9.287,0,0,1-1.76.754c-1.093.3-2.261.189-3.365.444a1.384,1.384,0,0,0-1.088.764,1.6,1.6,0,0,0,.119.995c1.22,3.577,1.955,7.375,3.9,10.614a16.064,16.064,0,0,0,3.011,3.656,2.871,2.871,0,0,0,1.536.851,1.56,1.56,0,0,0,1.586-2.191c-.174-.388-.5-.688-.708-1.058a4.037,4.037,0,0,1-.392-1.5,9.781,9.781,0,0,1,.153-4.577,15.382,15.382,0,0,1,1.551-2.679,4.676,4.676,0,0,0,.874-2.915,5.063,5.063,0,0,0-.786-1.949c-.362-.607-1.077-2.24-1.8-2.443C138.79,767.535,137.375,768.646,136.716,768.983Z" transform="translate(-110.327 -607.339)" fill="#2f2e41"/>
  <path id="Path_234" data-name="Path 234" d="M246.625,815.485a3.017,3.017,0,0,1-.143,1.021c-.228.6-.792,1.013-1.084,1.585a3.5,3.5,0,0,0,.047,2.612,2.676,2.676,0,0,0,.842,1.421,2.774,2.774,0,0,0,1.281.41c3.882.537,7.825.229,11.742.342a4.008,4.008,0,0,0,2.093-.3,1.32,1.32,0,0,0,.585-1.8c-.381-.516-1.133-.511-1.774-.542a7.3,7.3,0,0,1-4.5-1.854,3.252,3.252,0,0,1-.631-.727,4.464,4.464,0,0,1-.33-.757,33.745,33.745,0,0,0-1.955-4.33,2.294,2.294,0,0,0-.841-1.006,2.222,2.222,0,0,0-.912-.2c-.976-.063-3.5-.4-4.259.364C246.087,812.422,246.64,814.594,246.625,815.485Z" transform="translate(-200.342 -641.486)" fill="#2f2e41"/>
  <circle id="Ellipse_33" data-name="Ellipse 33" cx="6.236" cy="6.236" r="6.236" transform="translate(46.055 74.839)" fill="#fbbebe"/>
  <path id="Path_235" data-name="Path 235" d="M246.724,412.6a4.687,4.687,0,0,1-1.915,2.46l8.625,1.759a9.136,9.136,0,0,1-.121-3.846,2.216,2.216,0,0,0,.052-.949c-.162-.626-.867-.927-1.5-1.071a20,20,0,0,1-4.429-1.246C246.991,410.472,247.054,411.716,246.724,412.6Z" transform="translate(-200.065 -326.375)" fill="#ffb9b9"/>
  <path id="Path_236" data-name="Path 236" d="M215.987,421.54a6.744,6.744,0,0,1,5.878.154,13.305,13.305,0,0,1,2.921,2.33,4.664,4.664,0,0,1,1.772,2.866,8.034,8.034,0,0,1-.233,1.654,5.545,5.545,0,0,0,2.966,5.7,7.547,7.547,0,0,1,.837,3.855c.04,5.044-1.551,10.15-.415,15.064.267,1.154.68,2.271.911,3.433.3,1.5.284,3.052.44,4.578a20.5,20.5,0,0,0,1.1,4.841,2.011,2.011,0,0,1-1.86.777,5.253,5.253,0,0,1-1.989-.675c-3.039-1.555-5.823-3.606-8.972-4.928-2.083-.875-4.3-1.419-6.322-2.429a8.28,8.28,0,0,1-4.517-4.786,11.2,11.2,0,0,1-.3-2.906,52.752,52.752,0,0,1,.777-12.287c.79-3.541,2.312-6.928,2.644-10.541a7.174,7.174,0,0,1,.767-3.416C213.322,423.432,215.327,423.073,215.987,421.54Z" transform="translate(-171.315 -335.191)" fill="#2f2e41"/>
  <path id="Path_237" data-name="Path 237" d="M238.709,364.944a1.611,1.611,0,0,1,1.663-.4c.587.142,1.128.444,1.721.559a1.006,1.006,0,0,0,.806-.113,1.172,1.172,0,0,0,.348-.768,14.671,14.671,0,0,0,.144-3.74,1.108,1.108,0,0,1,.034-.525c.147-.354.595-.438.96-.551a2.866,2.866,0,0,0,1.94-2.934,1.167,1.167,0,0,0-.357-.805,1.467,1.467,0,0,0-.933-.221q-2.514-.02-5.029,0a3.652,3.652,0,0,0-1.81.33,8.791,8.791,0,0,0-1.05.885,10.3,10.3,0,0,1-3.323,1.289,3.294,3.294,0,0,0-1.456.869,1.534,1.534,0,0,0-.321,1.591,5.651,5.651,0,0,0,.406.625c.668,1.068.223,2.454.323,3.71.125,1.569,2.446,4.113,4.02,4.484C239.336,369.825,237.868,365.974,238.709,364.944Z" transform="translate(-189.965 -283.781)" fill="#2f2e41"/>
  <path id="Path_238" data-name="Path 238" d="M242.641,679.309a18.611,18.611,0,0,1,.311,3.45c-.077,1.613-.658,3.167-.766,4.778-.08,1.2.105,2.419-.062,3.614-.107.765-.356,1.5-.511,2.258a9.339,9.339,0,0,0,1.5,7.159,1.171,1.171,0,0,0,.435.422,1.229,1.229,0,0,0,.54.071,38.729,38.729,0,0,0,5.417-.492.52.52,0,0,0,.348-.153.487.487,0,0,0,.076-.205c.332-1.708-.425-3.42-.618-5.15a15.984,15.984,0,0,1,.677-5.5,24.427,24.427,0,0,1,.746-2.632c.213-.58.469-1.145.654-1.735a13.227,13.227,0,0,0,.474-2.841q.192-2.276.2-4.562a19.147,19.147,0,0,0-.358-4.307,22.957,22.957,0,0,0-2.052-5.107,3.233,3.233,0,0,0-1.209.575,26.989,26.989,0,0,1-3.3,1.825c-.768.356-2.264.61-2.752,1.353s-.17,2.228-.134,3.036Q242.352,677.243,242.641,679.309Z" transform="translate(-197.418 -529.375)" fill="#2f2e41"/>
  <path id="Path_239" data-name="Path 239" d="M242.641,679.309a18.611,18.611,0,0,1,.311,3.45c-.077,1.613-.658,3.167-.766,4.778-.08,1.2.105,2.419-.062,3.614-.107.765-.356,1.5-.511,2.258a9.339,9.339,0,0,0,1.5,7.159,1.171,1.171,0,0,0,.435.422,1.229,1.229,0,0,0,.54.071,38.729,38.729,0,0,0,5.417-.492.52.52,0,0,0,.348-.153.487.487,0,0,0,.076-.205c.332-1.708-.425-3.42-.618-5.15a15.984,15.984,0,0,1,.677-5.5,24.427,24.427,0,0,1,.746-2.632c.213-.58.469-1.145.654-1.735a13.227,13.227,0,0,0,.474-2.841q.192-2.276.2-4.562a19.147,19.147,0,0,0-.358-4.307,22.957,22.957,0,0,0-2.052-5.107,3.233,3.233,0,0,0-1.209.575,26.989,26.989,0,0,1-3.3,1.825c-.768.356-2.264.61-2.752,1.353s-.17,2.228-.134,3.036Q242.352,677.243,242.641,679.309Z" transform="translate(-197.418 -529.375)" opacity="0.1"/>
  <path id="Path_240" data-name="Path 240" d="M178.006,605.518c-.828,2.229.389,4.639,1.447,6.769a118.36,118.36,0,0,1,6.214,16.424,2.014,2.014,0,0,1,.119,1.286,1.684,1.684,0,0,1-.607.72,14.339,14.339,0,0,1-4.3,1.771A19.406,19.406,0,0,0,176.8,634.4c-1.071.664-2.074,1.43-3.076,2.195l-3.188,2.435a2.131,2.131,0,0,0-.533.516,2.083,2.083,0,0,0-.028,1.663,28.288,28.288,0,0,0,1.561,4.259,1.488,1.488,0,0,0,.566.742c.5.267,1.106-.087,1.486-.505s.709-.938,1.244-1.117,1.124.038,1.682-.041c.9-.127,1.5-.959,2.155-1.6,2.661-2.611,7.1-2.421,10.032-4.73a12.752,12.752,0,0,1,1.341-1.048c.495-.293,1.056-.453,1.57-.712a6.654,6.654,0,0,0,3.069-4.08c.526-1.667.676-3.428,1.054-5.135a22.327,22.327,0,0,0,.539-2.655,14.224,14.224,0,0,0-.054-2.511l-1.056-13.067c-.086-1.064-.172-2.129-.339-3.183-3.137.112-6.272.238-9.411.276C182.92,606.133,180.376,606.307,178.006,605.518Z" transform="translate(-141.213 -480.045)" fill="#2f2e41"/>
  <path id="Path_241" data-name="Path 241" d="M201.4,601.033a1.676,1.676,0,0,0,2.175.295c.713-.375,1.267-1.006,1.982-1.378a6.441,6.441,0,0,1,3.18-.451,20.671,20.671,0,0,1,5.1.57c1.706.486,3.366,1.421,5.129,1.234a1.055,1.055,0,0,0,.809-.38,1.193,1.193,0,0,0,.133-.61l.058-1.541a1.391,1.391,0,0,0-.123-.78,1.309,1.309,0,0,0-.584-.448,20.172,20.172,0,0,0-8.16-1.537q-2.125-.073-4.252-.06a15.491,15.491,0,0,0-3.818.155C201.459,596.534,200.6,599.752,201.4,601.033Z" transform="translate(-165.762 -472.503)" fill="#2f2e41"/>
  <path id="Path_242" data-name="Path 242" d="M215.89,423.989c-3.289-.029-6.269-2.2-9.558-2.253a2.479,2.479,0,0,0-1.161.2,4.323,4.323,0,0,0-1.108,1.054c-.972,1.053-2.38,1.615-3.379,2.643a3.92,3.92,0,0,0-1.088,3.692,2.743,2.743,0,0,0,3.073,1.972,7.92,7.92,0,0,1,3.086-4.192,15.687,15.687,0,0,1,2.412-1.266c1.478-.67,3.131-1.352,4.674-.85a6.6,6.6,0,0,1,1.595.87l2.573,1.728A17.911,17.911,0,0,0,215.89,423.989Z" transform="translate(-164.489 -335.811)" fill="#05bfce"/>
  <path id="Path_243" data-name="Path 243" d="M195.865,439.914c-.437.545.192,1.334.1,2.026-.064.46-.442.81-.6,1.247a6.683,6.683,0,0,0-.138,1.429,6.13,6.13,0,0,1-.274,1.018,18.288,18.288,0,0,0-.578,3.018l-.576,4.3a16.285,16.285,0,0,0-.182,1.954,5.834,5.834,0,0,1-.1,1.461,10.791,10.791,0,0,1-.6,1.329,1.557,1.557,0,0,0-.021,1.4,2.454,2.454,0,0,0-.514,3.064,1.7,1.7,0,0,1,.265.487,1.253,1.253,0,0,1-.117.719l-.582,1.551c-.149.4-.2,1,.218,1.092a3.66,3.66,0,0,0-.786,1.241,1.478,1.478,0,0,0,.209,1.4,1.783,1.783,0,0,1,.365.443,1.178,1.178,0,0,1-.042.7,2.562,2.562,0,0,0,.317,2.009,1.8,1.8,0,0,0,1.812.777,8.278,8.278,0,0,1,3.385-.462,60.469,60.469,0,0,1,7.512,1.711c2.794.892,5.5,2.2,8.42,2.475a.818.818,0,0,0,.563-.088.846.846,0,0,0,.26-.535l.9-4.232a43.555,43.555,0,0,0,.83-4.741c.1-1.029.132-2.064.161-3.1l.233-8.228a8.221,8.221,0,0,0-.473-3.577l-1.338-4.272c-.764-2.438-2.515-4.6-3.139-7.077-.395-1.568-.686-3.25-1.745-4.472-1.509-1.742-4.12-2.013-6.406-1.714a7.653,7.653,0,0,0-2.967.9,9.722,9.722,0,0,0-2.529,2.547C197.1,438.509,196.485,439.14,195.865,439.914Z" transform="translate(-158.063 -345.571)" fill="#05bfce"/>
  <path id="Path_244" data-name="Path 244" d="M236.569,553.861c.188.812.584,1.561.826,2.358.406,1.336.371,2.775.776,4.112.17.561.416,1.1.538,1.673a6.932,6.932,0,0,1-.646,3.985,15.569,15.569,0,0,0-1.311,3.87,2.964,2.964,0,0,0,.788,2.654,3.878,3.878,0,0,0,2.871.514,3.019,3.019,0,0,0,1.042-.217,2.813,2.813,0,0,0,1.26-2.084,30.931,30.931,0,0,0,.253-8.436l-.453-7.368a17.244,17.244,0,0,0-.618-4.228A4.032,4.032,0,0,0,241,548.88a5.981,5.981,0,0,0-2.283-.353C236.118,548.4,236.147,552.039,236.569,553.861Z" transform="translate(-193.431 -435.317)" fill="#fbbebe"/>
  <path id="Path_245" data-name="Path 245" d="M231.746,446.353a1.792,1.792,0,0,0-1.716.152,5.288,5.288,0,0,0-1.285,1.248c-1.149,1.4-2.365,3.012-2.195,4.817a12.215,12.215,0,0,0,.5,1.974c.77,2.879-.082,5.925.016,8.9a27.879,27.879,0,0,0,.8,5.1c.076.343.2.74.53.856a1.151,1.151,0,0,0,.766-.119,6.106,6.106,0,0,1,5.588.7c.617-.329.386-1.369.247-2.054a11.807,11.807,0,0,1,.824-6.1,22.464,22.464,0,0,0,1.6-6A18.324,18.324,0,0,0,236,448.97a2.208,2.208,0,0,0-1.86-1.841A12.83,12.83,0,0,1,231.746,446.353Z" transform="translate(-185.723 -355.012)" fill="#2f2e41"/>
</svg>
