<svg id="Group_11" data-name="Group 11" xmlns="http://www.w3.org/2000/svg" width="195.222" height="206.3" viewBox="0 0 195.222 206.3">
  <circle id="Ellipse_34" data-name="Ellipse 34" cx="85.675" cy="85.675" r="85.675" transform="translate(23.872 28.977)" fill="#f2f2f2"/>
  <path id="Path_246" data-name="Path 246" d="M387.771,416.114a6.917,6.917,0,0,0,.915-3.507c0-3.169-1.962-5.738-4.383-5.738s-4.383,2.569-4.383,5.738a6.917,6.917,0,0,0,.915,3.507,7.178,7.178,0,0,0,0,7.013,7.178,7.178,0,0,0,0,7.013,7.178,7.178,0,0,0,0,7.013,6.917,6.917,0,0,0-.915,3.507c0,3.169,1.962,5.738,4.383,5.738s4.383-2.569,4.383-5.738a6.918,6.918,0,0,0-.915-3.507,7.177,7.177,0,0,0,0-7.013,7.178,7.178,0,0,0,0-7.013A7.178,7.178,0,0,0,387.771,416.114Z" transform="translate(-328.255 -316.612)" fill="#3f3d56"/>
  <ellipse id="Ellipse_35" data-name="Ellipse 35" cx="4.383" cy="5.738" rx="4.383" ry="5.738" transform="translate(51.665 83.245)" fill="#3f3d56"/>
  <ellipse id="Ellipse_36" data-name="Ellipse 36" cx="4.383" cy="5.738" rx="4.383" ry="5.738" transform="translate(51.665 76.232)" fill="#3f3d56"/>
  <path id="Path_247" data-name="Path 247" d="M344.685,47.9a21.036,21.036,0,0,0,1.632-2.4L334.8,43.6l12.456.093a21.032,21.032,0,0,0,.4-16.636l-16.711,8.669L346.357,24.4A21,21,0,1,0,311.68,47.9a21.008,21.008,0,0,0-2.394,3.829l14.95,7.767L308.3,54.142a21.008,21.008,0,0,0,3.385,19.716,21,21,0,1,0,33,0,21,21,0,0,0,0-25.962Z" transform="translate(-272.228 -13.919)" fill="#95bf15"/>
  <path id="Path_248" data-name="Path 248" d="M307.188,217.322a20.905,20.905,0,0,0,4.493,12.981,21,21,0,1,0,33,0C347.5,226.73,307.188,214.965,307.188,217.322Z" transform="translate(-272.229 -170.363)" opacity="0.1"/>
  <path id="Path_249" data-name="Path 249" d="M357.15,567c-5.433,19.36-47.355,37.316-91.935,24.805s-74.937-50.75-69.5-70.11,44.6-12.509,89.179,0S362.583,547.64,357.15,567Z" transform="translate(-185.873 -395.753)" fill="#3f3d56"/>
  <path id="Path_250" data-name="Path 250" d="M357.15,567c-5.433,19.36-47.355,37.316-91.935,24.805s-74.937-50.75-69.5-70.11,44.6-12.509,89.179,0S362.583,547.64,357.15,567Z" transform="translate(-185.873 -395.753)" opacity="0.1"/>
  <ellipse id="Ellipse_37" data-name="Ellipse 37" cx="36.409" cy="83.838" rx="36.409" ry="83.838" transform="translate(0 160.996) rotate(-74.324)" fill="#3f3d56"/>
  <ellipse id="Ellipse_38" data-name="Ellipse 38" cx="24.577" cy="7.12" rx="24.577" ry="7.12" transform="translate(52.353 142.675)" opacity="0.1"/>
  <path id="Path_251" data-name="Path 251" d="M447.174,482.628,416.09,513.713l-13.065-13.065a4.466,4.466,0,0,0-6.316,0l-.469-.7c-1.744,1.744-1.275,5.274.469,7.018l16.952,16.952a3.408,3.408,0,0,0,4.818,0l35.009-34.973c1.745-1.743,2.378-4.94.634-6.685h0C452.378,480.515,448.918,480.884,447.174,482.628Z" transform="translate(-339.981 -373.808)" fill="#95bf15"/>
  <path id="Path_252" data-name="Path 252" d="M447.174,482.628,416.09,513.713l-13.065-13.065a4.466,4.466,0,0,0-6.316,0l-.469-.7c-1.744,1.744-1.275,5.274.469,7.018l16.952,16.952a3.408,3.408,0,0,0,4.818,0l35.009-34.973c1.745-1.743,2.378-4.94.634-6.685h0C452.378,480.515,448.918,480.884,447.174,482.628Z" transform="translate(-339.981 -373.808)" opacity="0.1"/>
  <path id="Path_253" data-name="Path 253" d="M448.04,477.294l-31.085,31.085L403.89,495.314a4.466,4.466,0,0,0-6.316,0h0a4.466,4.466,0,0,0,0,6.316l16.952,16.952a3.408,3.408,0,0,0,4.818,0l35.009-34.973a4.465,4.465,0,0,0,0-6.316h0A4.465,4.465,0,0,0,448.04,477.294Z" transform="translate(-340.846 -369.853)" fill="#95bf15"/>
  <path id="Path_254" data-name="Path 254" d="M650.3,712.05a10.083,10.083,0,0,0-4.17,2.5s-2.5,1.112-4.031.834-4.309,2.5-2.085,3.336,15.846,3.058,16.124,2.363.278-7.784.278-7.784Z" transform="translate(-527.965 -551.695)" fill="#575a89"/>
  <path id="Path_255" data-name="Path 255" d="M749.116,706.854a10.083,10.083,0,0,0-3.681,3.177s-2.275,1.523-3.829,1.51-3.818,3.2-1.485,3.643,16.135.306,16.29-.426-1.056-7.717-1.056-7.717Z" transform="translate(-604.948 -547.692)" fill="#575a89"/>
  <circle id="Ellipse_39" data-name="Ellipse 39" cx="6.255" cy="6.255" r="6.255" transform="translate(120.593 52.424)" fill="#ffb9b9"/>
  <path id="Path_256" data-name="Path 256" d="M707.59,273.926s.695,4.726,1.946,5.282a9.236,9.236,0,0,1,2.363,1.668l-3.475,1.668-6.811-.417s.556-3.058-.417-4.587S707.59,273.926,707.59,273.926Z" transform="translate(-575.668 -214.204)" fill="#ffb9b9"/>
  <path id="Path_257" data-name="Path 257" d="M766.962,371.354s3.2,8.2,0,16.124-4.587,9.174-4.587,9.174l-.973-10.425,1.119-1.015a13.2,13.2,0,0,0,.127-5.035c-.551-1.873.283-7.71.283-7.71Z" transform="translate(-622.114 -289.254)" fill="#ffb9b9"/>
  <path id="Path_258" data-name="Path 258" d="M669.3,431.565s-4.031,9.174-3.614,13.622S669.3,468.4,669.3,468.4s-.417,24.185.834,24.185,7.228,2.224,7.228.695,1.251-38.224,1.251-38.224,7.089,16.124,7.784,17.375,5.143,20.85,6.672,20.85,6.255-1.39,5.838-2.363-5.143-22.656-7.784-28.216-2.085-26.549-2.085-26.549l-4.448-9.73Z" transform="translate(-548.361 -331.673)" fill="#2f2e41"/>
  <path id="Path_259" data-name="Path 259" d="M682.969,235.141s-3.892-.278-4.17-1.251-.834-1.807-.556-1.807.417-.695.417-.695.278-.139.417,0,.278-.973.278-.973.139-.417.278-.139.139.139.278-.278.834-.7.834-.7,2.641.139,3.058-.417,5.143-.139,6.116.556,5.282,3.2,4.587,5.282-3.2,6.672-3.2,7.367-.973.556-1.251-.139-2.5-1.529-2.5-1.946-1.251-4.309-1.946-4.031-1.529,2.5-1.807,2.085A19.86,19.86,0,0,1,682.969,235.141Z" transform="translate(-557.997 -179.312)" fill="#3f3d56"/>
  <path id="Path_260" data-name="Path 260" d="M699.092,305.392s-5.7-8.34-7.367-8.757-5.421-1.529-5.421-1.529a27.339,27.339,0,0,0-4.865,1.112c-1.112.556-5.282,1.529-5.421,3.2s1.112,17.653.417,19.182-3.058,16.124-1.946,15.846.278-3.892,5.143-4.031,7.506-3.058,9.313.417,6.95,6.116,6.95,6.116a33.654,33.654,0,0,1,.556-3.336c.417-1.946-1.112-6.672-1.112-6.672s.139-10.981.695-12.232S699.092,305.392,699.092,305.392Z" transform="translate(-554.938 -230.52)" fill="#575a89"/>
  <path id="Path_261" data-name="Path 261" d="M765.58,338.677l2.085.278s-.139,2.78.417,3.614,1.529,5.143.973,5.282-5.56.973-5.56.973l-.278-6.394Z" transform="translate(-623.512 -264.083)" fill="#575a89"/>
  <path id="Path_262" data-name="Path 262" d="M642.1,360.462s-1.39,9.035-2.085,10.147-4.17,16.68-4.17,16.68-5.714,7.946-2.934,7.807,5.714-7.251,5.714-7.251,8.618-15.707,8.618-17.375,2.085-10.008,2.085-10.008Z" transform="translate(-522.546 -280.864)" fill="#ffb9b9"/>
  <path id="Path_263" data-name="Path 263" d="M675.908,307.209l-2.5.973s-3.2,11.4-2.5,12.371,9.035-.417,9.174-.834S678.549,307.209,675.908,307.209Z" transform="translate(-552.326 -239.843)" fill="#575a89"/>
  <path id="Path_264" data-name="Path 264" d="M206.474,434.718c0,9.686,6.077,17.524,13.586,17.524" transform="translate(-194.648 -338.064)" fill="#3f3d56"/>
  <path id="Path_265" data-name="Path 265" d="M265.624,451.582c0-9.8,6.781-17.721,15.161-17.721" transform="translate(-240.212 -337.403)" fill="#95bf15"/>
  <path id="Path_266" data-name="Path 266" d="M227.905,438.541c0,9.2,3.875,16.646,8.664,16.646" transform="translate(-211.157 -341.009)" fill="#95bf15"/>
  <path id="Path_267" data-name="Path 267" d="M265.624,435.074c0-12.516,7.838-22.644,17.524-22.644" transform="translate(-240.212 -320.895)" fill="#3f3d56"/>
  <path id="Path_268" data-name="Path 268" d="M253.18,508.058a7.063,7.063,0,0,0,2.507-.473c.581-.414,2.964-.907,3.108-.244s2.9,3.3.72,3.316a18.421,18.421,0,0,1-5.634-.692C253.3,509.612,253.18,508.058,253.18,508.058Z" transform="translate(-230.626 -393.756)" fill="#a8a8a8"/>
  <path id="Path_269" data-name="Path 269" d="M259.555,513.909a18.423,18.423,0,0,1-5.634-.692c-.441-.269-.617-1.234-.676-1.679l-.064,0s.122,1.554.7,1.907a18.428,18.428,0,0,0,5.634.692c.628-.005.845-.229.833-.559C260.262,513.781,260.022,513.906,259.555,513.909Z" transform="translate(-230.627 -397.239)" opacity="0.2"/>
</svg>
