<svg xmlns="http://www.w3.org/2000/svg" xmlns:xlink="http://www.w3.org/1999/xlink" width="220.323" height="186.038" viewBox="0 0 220.323 186.038">
  <defs>
    <linearGradient id="linear-gradient" x1="0.5" y1="1" x2="0.5" gradientUnits="objectBoundingBox">
      <stop offset="0" stop-color="gray" stop-opacity="0.251"/>
      <stop offset="0.54" stop-color="gray" stop-opacity="0.122"/>
      <stop offset="1" stop-color="gray" stop-opacity="0.102"/>
    </linearGradient>
  </defs>
  <g id="Group_6" data-name="Group 6" transform="translate(0.006 -0.004)">
    <path id="Path_30" data-name="Path 30" d="M210.824,32.136c7.026-6.257,18.048-7.533,28.083-7.034,31.517,1.565,59.97,16.781,84.571,33.99,8.91,6.229,17.68,12.944,23.463,21.524,11.771,17.466,8.28,41.662-8.1,56.05-5.568,4.894-12.32,8.648-19.261,11.974-12.325,5.909-25.621,10.663-39.615,12.016-9.974.963-20.07.179-29.985-1.164-27.7-3.758-54.9-12.066-77.7-26.28-10-6.236-19.42-13.986-23.539-24.076S147.294,86.286,157.5,80.3c4.222-2.469,9.269-3.585,14.211-4.631,7.273-1.532,14.664-3.064,21.23-6.194,6.785-3.235,14.809-9.495,13.467-16.658C204.969,45.139,203.82,38.387,210.824,32.136Z" transform="translate(-135.663 -25)" fill="#fecd0f" opacity="0.1"/>
    <ellipse id="Ellipse_6" data-name="Ellipse 6" cx="104.04" cy="15.988" rx="104.04" ry="15.988" transform="translate(12.238 154.065)" fill="#fecd0f"/>
    <path id="Path_31" data-name="Path 31" d="M491.5,340.619s-1.335-.4-3.11-.915a6.208,6.208,0,0,0-2.5-.7c-2.095-.576-4.246-1.123-5.41-1.294a66.684,66.684,0,0,1-7.621-1.941,6.788,6.788,0,0,1-3.811-1.215s-2.011-3.642-3.18-4.443a.875.875,0,0,0-.147-.09,2.769,2.769,0,0,1-.46-.335c-1.2-3.918-3.826-4.159-3.962-4.172h0c-.508-.576-.967-1.105-1.313-1.517,1.353-7.315,5.4-15.481,14.7-22.384,0,0,5.524-6.465,2.313-13.946s-4.11-7.606-9.63-6.212l-12.478,5.96a65.85,65.85,0,0,1-10.353,1.221,4.206,4.206,0,0,0-2.668-2.377c-2.561-.617-4.793,2.064-7.251,1.326-1.876-.562-4.141-2.775-5.984-.633-.26.3-.438.672-.683.983a2.761,2.761,0,0,1-.6.549c-4.189-.276-8.84-.735-13.942-1.451l-11.044-6.592s-6.807-3.169-7.063,5.2-.9,12.3,2.053,14.579c2.141,1.652,9.131,12.953,11.749,22.668-.385.552-.624.9-.624.9s-7.461,10.118-8.028,10.361c-.037.015-.053.07-.05.153-.109.236-.438.689-1.491.981-1.46.4-7.945,2.346-8.838,2.346s-4.944.243-5.351,1.863a5.6,5.6,0,0,1,.768.015l-.195.247c-1.107,1.423-2.972,4.073-3.086,5.888-.164,2.589.567,10.6,4.784,10.521s2.27-11.977,2.27-11.977l.495-1.453.013-.035.341,2.392c.074-.042.147-.083.219-.118.383,1.164,1.773,2.3,5.7,2.384,0,0,6.08.567,10.622,9.63,4.121,8.229,17.8,15.857,27.81,15.8v13.336l-1.377.4-17.875.306a1.169,1.169,0,0,0-1.151,1.114l-.109,2.3,5.183.488L403,394.618s-2.845-.243-2.353,3.8h3.975l.081-.81,32.27-2.265,1.867.464c-.26,1.364-.523,2.475-.591,2.767l-.02.074a.634.634,0,0,1-.026.149c-.19-.066-.3-.109-.3-.109-.438.5-.689,5.706-.729,6.233s2.027,1.162,2.027,1.162c.937.344,4.572,0,4.572,0h0a27.4,27.4,0,0,0,4.426-1.2l-.284-5.706c-.14.046-.28.088-.42.127q.013-.12.026-.25c.028-.335.053-.694.074-1.064l14.432,3.579h.4v.729H466.9s.4-3.075-1.217-4.047-10.136-4.29-10.136-4.29l2.04-.193h0l8.131-.773v.219h1.215l-.026-.339,2.257-.219,2.675.081s-.081-3.4-2.108-3.642c-.35-.044-1.5-.16-3.16-.326l-.527-6.406c1.294-2.189,4.622,4.45,4.622,4.45s.013.05.033.134c.16.681.906,3.721,1.412,4.069h.015a7,7,0,0,0,.875.4,17.539,17.539,0,0,0,4.062.974c2.6.326,8.271-1.374,9.339-1.941a1.344,1.344,0,0,0,.455-.376.948.948,0,0,0-.063-1.066l-1.14-.116c1-.453,1.2-2.136-.676-2.456-.072-.013-.147-.022-.219-.031a2.975,2.975,0,0,1,.337-.466c-.974.186-3.57-.991-3.57-.991a6,6,0,0,0-1.164-.368l-.028-.05c-.039-.072-.077-.147-.112-.219a14.723,14.723,0,0,1-.965-3.721c-.4-2.348-5.148-11.412-5.148-11.412s-1.652-3.773-3.064-7.779a13.164,13.164,0,0,0,3.721-4.815h0l1.392-2.141a26.047,26.047,0,0,0,2.462-3.784l1.416-2.176h0c2.64-.193,6.98-.495,9.21-.567.639,3.465,1.414,7.479,1.764,8.569.657,2.025,3.975-.324,5.27-5.5S491.5,340.619,491.5,340.619Zm-49.988,42.7V371.937c.694-.109,1.458-.239,2.278-.385-.49,2.9-1.094,5.561-1.094,5.561A29.9,29.9,0,0,1,441.515,383.318Zm25.973-3.583.42.14a4.6,4.6,0,0,1,1.786,1.149A14.4,14.4,0,0,0,467.488,379.735Zm-2.58-10.464s.974,1.863-.972,4.938c-1.46,2.307-.593,3.659,1.508,4.7a16.7,16.7,0,0,0-2.114-.576l.1.059c-1.712-.374-.875,1.153-.875,1.153,1.7,1.65,2.489,5.82,2.845,9.127-4.465-.438-11.482-1.123-17.153-1.67a14.952,14.952,0,0,0,.193-1.709,37.275,37.275,0,0,1,1.055-4.776s3.031-7.059,4.7-11.309a69.067,69.067,0,0,0,9.269-3.252C464.251,367.673,464.907,369.271,464.907,369.271Z" transform="translate(-319.459 -224.068)" fill="url(#linear-gradient)"/>
    <rect id="Rectangle_465" data-name="Rectangle 465" width="6.971" height="19.954" transform="translate(115.192 145.908)" fill="#fecd0f"/>
    <rect id="Rectangle_466" data-name="Rectangle 466" width="6.971" height="19.954" transform="translate(115.192 145.908)" opacity="0.3"/>
    <path id="Path_32" data-name="Path 32" d="M482.272,765.936l-.109,2.281,5.13.482-15.949,3.848s-2.8-.241-2.322,3.767h3.927l.079-.8,31.9-2.246,24.763,6.172h.4v.72h4.408s.4-3.044-1.2-4.005-10.016-4.248-10.016-4.248l13.463-1.283,2.644.081s-.079-3.366-2.084-3.607-30.3-2.966-30.3-2.966h-4.555l-1.364.409-17.656.291a1.16,1.16,0,0,0-1.147,1.105Z" transform="translate(-387.247 -602.354)" fill="#fecd0f"/>
    <path id="Path_33" data-name="Path 33" d="M628.871,691.63v2.313c-2.51.4-4.086.571-4.086.571a16.14,16.14,0,0,1-2.885.26V691.63Z" transform="translate(-506.708 -545.722)" opacity="0.1"/>
    <path id="Path_34" data-name="Path 34" d="M871.634,567.408c-1.283,5.128-4.568,7.453-5.211,5.448-.582-1.828-2.373-11.939-2.677-13.686-.028-.166-.046-.258-.046-.258l-.32-2.081,2.714.245.81.074S872.914,562.278,871.634,567.408Z" transform="translate(-695.336 -440.426)" fill="#ffb9b9"/>
    <path id="Path_35" data-name="Path 35" d="M422.5,560.684s-2.8,4.728,5.29,4.887c0,0,6.01.56,10.506,9.536s20.436,17.229,30.372,15.386c0,0,33.268-3.589,37.245-16.586l2.745-7.054s11.381-.875,12.581-.722.4-3.283.4-3.283l-2.966-2.162-7.052,1.2-8.013,7.372L478.6,581.039l-24.122-3.447s-19.072-12.257-19.232-12.821-7.693-5.691-7.693-5.691Z" transform="translate(-350.587 -442.183)" fill="#fecd0f"/>
    <path id="Path_36" data-name="Path 36" d="M393.944,550.75v1.2l-.637,1.847-.49,1.438s1.922,11.782-2.243,11.86-4.885-7.855-4.725-10.416c.114-1.8,1.957-4.421,3.051-5.828.466-.6.8-.985.8-.985Z" transform="translate(-322.305 -434.989)" fill="#ffb9b9"/>
    <path id="Path_37" data-name="Path 37" d="M482.272,765.936l-.109,2.281,5.13.482-15.949,3.848s-2.8-.241-2.322,3.767h3.927l.079-.8,31.9-2.246,24.763,6.172h.4v.72h4.408s.4-3.044-1.2-4.005-10.016-4.248-10.016-4.248l13.463-1.283,2.644.081s-.079-3.366-2.084-3.607-30.3-2.966-30.3-2.966h-4.555l-1.364.409-17.656.291a1.16,1.16,0,0,0-1.147,1.105Z" transform="translate(-387.247 -602.354)" opacity="0.3"/>
    <path id="Path_38" data-name="Path 38" d="M422.5,560.684s-2.8,4.728,5.29,4.887c0,0,6.01.56,10.506,9.536s20.436,17.229,30.372,15.386c0,0,33.268-3.589,37.245-16.586l2.745-7.054s11.381-.875,12.581-.722.4-3.283.4-3.283l-2.966-2.162-7.052,1.2-8.013,7.372L478.6,581.039l-24.122-3.447s-19.072-12.257-19.232-12.821-7.693-5.691-7.693-5.691Z" transform="translate(-350.587 -442.183)" opacity="0.4"/>
    <path id="Path_39" data-name="Path 39" d="M531.171,344.052l-6.855,7.66c-16.376,18.954-47.221,11.924-58,10.418s-16.293-17.947-16.293-17.947a4.144,4.144,0,0,0,1.226-.05c1.814-.311,5.216-1.812,7.2-8.486,2.793-9.411-9.267-29.876-12.187-32.134s-2.285-6.15-2.031-14.445,6.973-5.152,6.973-5.152l10.917,6.527c26.783,3.767,41,.376,41,.376l12.311-5.9c5.459-1.381,6.347-1.256,9.521,6.15s-2.285,13.808-2.285,13.808c-18.4,13.682-15.993,32.393-13.075,39.289,1.97,4.651,11.07,2.981,16.807,1.394C529.179,344.8,531.171,344.052,531.171,344.052Z" transform="translate(-367.736 -226.787)" fill="#fecd0f"/>
    <path id="Path_40" data-name="Path 40" d="M531.171,344.052l-6.855,7.66c-16.376,18.954-47.221,11.924-58,10.418s-16.293-17.947-16.293-17.947a4.144,4.144,0,0,0,1.226-.05c1.814-.311,5.216-1.812,7.2-8.486,2.793-9.411-9.267-29.876-12.187-32.134s-2.285-6.15-2.031-14.445,6.973-5.152,6.973-5.152l10.917,6.527c26.783,3.767,41,.376,41,.376l12.311-5.9c5.459-1.381,6.347-1.256,9.521,6.15s-2.285,13.808-2.285,13.808c-18.4,13.682-15.993,32.393-13.075,39.289,1.97,4.651,11.07,2.981,16.807,1.394C529.179,344.8,531.171,344.052,531.171,344.052Z" transform="translate(-367.736 -226.787)" opacity="0.1"/>
    <path id="Path_41" data-name="Path 41" d="M536.647,351.069l-6.49,7.326c-15.507,18.151-44.717,11.418-54.936,9.976S459.8,351.18,459.8,351.18a3.906,3.906,0,0,0,1.158-.048c1.72-.3,4.94-1.736,6.816-8.124,2.644-9.017-8.774-28.611-11.539-30.773s-2.169-5.883-1.924-13.811,6.612-4.929,6.612-4.929l10.337,6.242c25.363,3.6,38.827.361,38.827.361l11.659-5.651c5.17-1.313,6.01-1.2,9.015,5.89s-2.162,13.224-2.162,13.224c-17.431,13.1-15.148,31.018-12.375,37.628,1.86,4.454,10.482,2.845,15.914,1.335C534.763,351.789,536.647,351.069,536.647,351.069Z" transform="translate(-375.618 -234.292)" fill="#fecd0f"/>
    <path id="Path_42" data-name="Path 42" d="M756.8,493.651s-2.885-.241-3.2,1.762l-19.954,1.677-4.962.407-5.253-18.44-1-3.517,2.484.8s.919,1.094,2.068,2.39a33.3,33.3,0,0,0,4.342,4.421.968.968,0,0,1,.144.09c1.153.792,3.141,4.4,3.141,4.4a6.7,6.7,0,0,0,3.769,1.2,66.508,66.508,0,0,0,7.531,1.924C748.626,491.169,756.8,493.651,756.8,493.651Z" transform="translate(-585.235 -376.928)" fill="#3f3d56"/>
    <path id="Path_43" data-name="Path 43" d="M557.052,558.53l-6.489,7.326c-15.507,18.151-44.717,11.418-54.936,9.976s-15.426-17.19-15.426-17.19a3.907,3.907,0,0,0,1.158-.048,29.768,29.768,0,0,1,3.889,3.9c11.3,13.384,28.453,12.5,28.453,12.5s24.842,2.964,33.977-10.981a39.382,39.382,0,0,1,4.857-4.034C555.167,559.25,557.052,558.53,557.052,558.53Z" transform="translate(-396.022 -441.754)" opacity="0.1"/>
    <path id="Path_44" data-name="Path 44" d="M756.8,493.651s-2.885-.241-3.2,1.762l-19.954,1.677-4.962.407-5.253-18.44-1-3.517,2.484.8s.919,1.094,2.068,2.39a33.3,33.3,0,0,0,4.342,4.421.968.968,0,0,1,.144.09c1.153.792,3.141,4.4,3.141,4.4a6.7,6.7,0,0,0,3.769,1.2,66.508,66.508,0,0,0,7.531,1.924C748.626,491.169,756.8,493.651,756.8,493.651Z" transform="translate(-585.235 -376.928)" opacity="0.1"/>
    <path id="Path_45" data-name="Path 45" d="M867.145,557.39s-2.885-.241-3.2,1.762l-.195.018c-.028-.166-.046-.258-.046-.258l-.32-2.081,2.714.245Z" transform="translate(-695.336 -440.426)" opacity="0.1"/>
    <path id="Path_46" data-name="Path 46" d="M503.562,566.284c-4.815,5.31-13.986,11.447-30.545,10.893,0,0-29.81,3.769-40.791-18.91,0,0-4.25-7.792-12.125-3.484l-.219.118-.482-3.366s7.052-9.457,18.35,3.927,28.453,12.5,28.453,12.5,24.844,2.964,33.979-10.981c0,0,12.913-13.06,18.994-5.047l.33,2.432.072.534a10.31,10.31,0,0,0-10.808,3.364Z" transform="translate(-348.529 -433.756)" opacity="0.1"/>
    <path id="Path_47" data-name="Path 47" d="M419.42,549.338s7.052-9.455,18.352,3.927a33.149,33.149,0,0,0,4.25,4.2c10.893,8.982,24.2,8.3,24.2,8.3s24.842,2.966,33.977-10.978c0,0,12.913-13.062,18.994-5.049l.4,2.966a10.279,10.279,0,0,0-11.3,4s-6.492,19.232-35.262,18.271c0,0-29.81,3.767-40.791-18.912,0,0-4.327-7.934-12.34-3.366Z" transform="translate(-348.545 -432.041)" fill="#fecd0f"/>
    <path id="Path_48" data-name="Path 48" d="M511.979,333.477l-.578.046c-.615-1.213-.77-6.566-.547-11.624l-.479-.02c-.105,2.379-.33,9.451.563,11.679-5.66.42-30.8,2.13-39.769-.013a15.945,15.945,0,0,0,.84-12.11l-.438.186a15.42,15.42,0,0,1-.768,11.6c-1.46-2.285-9.175-13.747-16.043-12.257l.1.471c6.347-1.383,13.8,9.387,15.437,11.889l-.293-.074.635.613.219.344.042-.083a23.745,23.745,0,0,1,6.025,16.328c-.079,2.55,1.607,4.837,4.874,6.619a28.845,28.845,0,0,0,13.15,3.042c3.6,0,6.879-.67,8.886-2.053a4.446,4.446,0,0,0,2.1-4.441c-1.329-9.781,6.233-19.6,6.36-19.757,10.353-12.39,18.891-11.5,18.976-11.493l.059-.477C530.964,321.847,522.489,320.943,511.979,333.477Zm-6.531,20.2a3.948,3.948,0,0,1-1.893,3.981c-4.307,2.966-15.174,2.454-21.535-1.013-2.16-1.18-4.714-3.206-4.623-6.183a24.292,24.292,0,0,0-5.861-16.343c9.556,2.018,34.538.282,39.657-.1a.618.618,0,0,0,.241.19c-1.674,2.379-7.157,10.919-5.986,19.471Z" transform="translate(-376.15 -256.08)" opacity="0.1"/>
    <path id="Path_49" data-name="Path 49" d="M582.81,760.36l10.11,2.933-2.016.193Z" transform="translate(-454.876 -593.938)" opacity="0.1"/>
    <path id="Path_50" data-name="Path 50" d="M448.219,753.7l7.293-1.762-9.3,1.574Z" transform="translate(-348.173 -587.36)" opacity="0.1"/>
    <path id="Path_51" data-name="Path 51" d="M404.889,550.742v1.2l-.637,1.847a4.863,4.863,0,0,0-4.412-2.948c.466-.6.8-.985.8-.985Z" transform="translate(-333.25 -434.981)" opacity="0.1"/>
    <path id="Path_52" data-name="Path 52" d="M414.549,529.4l-1.762-.4s-.081.72-1.532,1.121-7.853,2.324-8.735,2.324-4.89.241-5.29,1.843c0,0,4.73-.32,5.45,3.848l13.7-.641Z" transform="translate(-331.212 -418.687)" fill="#3f3d56"/>
    <path id="Path_53" data-name="Path 53" d="M414.549,529.4l-1.762-.4s-.081.72-1.532,1.121-7.853,2.324-8.735,2.324-4.89.241-5.29,1.843c0,0,4.73-.32,5.45,3.848l13.7-.641Z" transform="translate(-331.212 -418.687)" opacity="0.1"/>
    <path id="Path_54" data-name="Path 54" d="M752.26,728.91s4.025,2.3,5.559,4.522a42.605,42.605,0,0,1,2.845,5s3.005,1.313.812-3.463S752.26,728.91,752.26,728.91Z" transform="translate(-608.537 -574.843)" fill="#3f3d56"/>
    <path id="Path_55" data-name="Path 55" d="M752.26,728.91s4.025,2.3,5.559,4.522a42.605,42.605,0,0,1,2.845,5s3.005,1.313.812-3.463S752.26,728.91,752.26,728.91Z" transform="translate(-608.537 -574.843)" fill="#3f3d56"/>
    <path id="Path_56" data-name="Path 56" d="M752.26,728.91s4.025,2.3,5.559,4.522a42.605,42.605,0,0,1,2.845,5s3.005,1.313.812-3.463S752.26,728.91,752.26,728.91Z" transform="translate(-608.537 -574.843)" opacity="0.1"/>
    <path id="Path_57" data-name="Path 57" d="M567.068,312.261c-.256.3-.438.657-.672.972-1.02,1.267-2.942,1.213-4.4,1.924-2,.974-2.968,3.382-2.911,5.607a18.885,18.885,0,0,0,1.766,6.4,15.472,15.472,0,0,1,1.506,6.448,16.163,16.163,0,0,1-.847,3.85,3.545,3.545,0,0,1-1.287,2.138,41.1,41.1,0,0,0,6.632.639c6.382.1,12.767-1.28,19.118-.646a5.931,5.931,0,0,1-1.823-5.6,22.024,22.024,0,0,1,.781-2.318,12.59,12.59,0,0,0,.024-8.011c-.258-.768-.591-1.512-.81-2.292-.5-1.812-.37-3.74-.729-5.586s-1.436-3.776-3.263-4.218c-2.53-.611-4.736,2.042-7.168,1.313C571.128,312.331,568.891,310.138,567.068,312.261Z" transform="translate(-457.637 -248.677)" fill="#3f3d56"/>
    <g id="Group_5" data-name="Group 5" transform="translate(101.51 71.685)" opacity="0.1">
      <path id="Path_58" data-name="Path 58" d="M674.229,389.079a12.584,12.584,0,0,0,.657-4.279,12.6,12.6,0,0,1-.657,3.8,22.368,22.368,0,0,0-.781,2.318,5.579,5.579,0,0,0-.12,1.451,5.562,5.562,0,0,1,.12-.97A21.528,21.528,0,0,1,674.229,389.079Z" transform="translate(-648.385 -377.733)"/>
      <path id="Path_59" data-name="Path 59" d="M562.667,365.093a15.931,15.931,0,0,0-1.515-6.236,19.055,19.055,0,0,1-1.762-6.347v.438a18.919,18.919,0,0,0,1.764,6.4A17.129,17.129,0,0,1,562.667,365.093Z" transform="translate(-559.39 -352.51)"/>
      <path id="Path_60" data-name="Path 60" d="M589.816,437.7c-6.183-.514-12.395.784-18.6.689a41.517,41.517,0,0,1-6.161-.56,1.935,1.935,0,0,1-.471.4,41.092,41.092,0,0,0,6.632.639c6.382.1,12.764-1.283,19.116-.657A5.5,5.5,0,0,1,589.816,437.7Z" transform="translate(-563.444 -418.959)"/>
    </g>
    <path id="Path_61" data-name="Path 61" d="M640.99,847.12l5.284.974-.363.63s-3.594.341-4.52,0S640.99,847.12,640.99,847.12Z" transform="translate(-521.504 -667.18)" fill="#3f3d56"/>
    <path id="Path_62" data-name="Path 62" d="M665.04,584.9s21.909-6.908,21.108-11.316-20.256-5.472-21.108-4.34S665.04,584.9,665.04,584.9Z" transform="translate(-540.11 -449.794)" fill="#3f3d56"/>
    <path id="Path_63" data-name="Path 63" d="M665.04,584.9s21.909-6.908,21.108-11.316-20.256-5.472-21.108-4.34S665.04,584.9,665.04,584.9Z" transform="translate(-540.11 -449.794)" opacity="0.2"/>
    <path id="Path_64" data-name="Path 64" d="M579.474,403.808l-4.159,3.688-5.29.961-9.536-1.2-5.369-3.688s.948-.208,3.607-.8l2.162-.479c4.329-.963,2.565-8.1,2.565-8.1s11.861-6.33,10.339,1.683c-.83,4.366.932,6.33,2.71,7.223A7.26,7.26,0,0,0,579.474,403.808Z" transform="translate(-454.544 -311.527)" fill="#e2a1a0"/>
    <circle id="Ellipse_7" data-name="Ellipse 7" cx="9.219" cy="9.219" r="9.219" transform="translate(105.524 69.08)" opacity="0.1"/>
    <circle id="Ellipse_8" data-name="Ellipse 8" cx="9.219" cy="9.219" r="9.219" transform="translate(105.524 68.84)" fill="#ffb9b9"/>
    <path id="Path_65" data-name="Path 65" d="M579.474,442.892l-4.159,3.688-5.29.961-9.536-1.2-5.369-3.688s.948-.208,3.607-.8l.56.322H576.5A7.261,7.261,0,0,0,579.474,442.892Z" transform="translate(-454.544 -350.611)" opacity="0.1"/>
    <path id="Path_66" data-name="Path 66" d="M528.111,441.878h9.433s3.228-1.2,4.27-.482a6.862,6.862,0,0,0,4.408.482c.4-.32,6.33,2.972,8.494,7.612l-7.693,6.085-33.417,13.309s-1.532-2.646-.963-3.526S511.6,462.8,511.6,462.8s-.56-2.966,0-3.846l-7.052-8.816s4.89-7.133,6.012-7.853c0,0,.4-1.182.8-1.112s7.547.219,7.547.219l.875.495Z" transform="translate(-415.043 -350.077)" fill="#3f3d56"/>
    <path id="Path_67" data-name="Path 67" d="M528.111,441.878h9.433s3.228-1.2,4.27-.482a6.862,6.862,0,0,0,4.408.482c.4-.32,6.33,2.972,8.494,7.612l-.8.633-6.894,5.452-33.417,13.309s-1.532-2.646-.963-3.526S511.6,462.8,511.6,462.8s-.56-2.966,0-3.846l-7.052-8.816s4.89-7.133,6.012-7.853c0,0,.4-1.182.8-1.112s7.547.219,7.547.219l.875.495Z" transform="translate(-415.043 -350.077)" opacity="0.1"/>
    <path id="Path_68" data-name="Path 68" d="M479.022,478.1l-2.966.875S468.685,489,468.125,489.24s3.6,8.494,3.6,8.494,1.442-1.123,2.165-1.843,9.214-8.1,9.214-8.1Z" transform="translate(-386.549 -378.927)" fill="#3f3d56"/>
    <path id="Path_69" data-name="Path 69" d="M479.022,478.1l-2.966.875S468.685,489,468.125,489.24s3.6,8.494,3.6,8.494,1.442-1.123,2.165-1.843,9.214-8.1,9.214-8.1Z" transform="translate(-386.549 -378.927)" opacity="0.1"/>
    <path id="Path_70" data-name="Path 70" d="M737.215,508.479l-4.962.407L727,490.446l3.552-.326a33.3,33.3,0,0,0,4.342,4.421.968.968,0,0,1,.144.09,14.5,14.5,0,0,1,.414,2.686c.482,7,1.121,8.376,1.121,8.376S736.849,506.822,737.215,508.479Z" transform="translate(-588.805 -388.317)" opacity="0.1"/>
    <path id="Path_71" data-name="Path 71" d="M737.7,552.813c-.136-.02-.324-.039-.554-.061l-.219-.02c-2.918-.254-10.915-.641-10.915-.641a20.273,20.273,0,0,0-.576-2.092c-.031-.1-.066-.2-.1-.3-.753-2.189-2.173-5.192-4.454-5.936-3.686-1.2-5.848-2.565-3.924-5.612s.961-4.887.961-4.887-2.664-6.49-3.574-7.291a25.677,25.677,0,0,1-2.891-5.627c-.1-.241-.2-.484-.287-.722a14.065,14.065,0,0,1-1.02-3.43c-.074-1.687-3.1-15.717-3.616-18.09-.046-.219-.072-.341-.072-.341a.475.475,0,0,0-.02-.112c-.14-.858-.906-6.52,2.985-7.264l4.92-.453h0c.164.013,3.981.366,4.452,7.223.482,7,1.121,8.376,1.121,8.376s2,8.1,2.165,12.421,4.927,15.227,4.927,15.227,4.688,8.974,5.091,11.3a14.56,14.56,0,0,0,.952,3.695c.035.074.072.147.109.219a3.253,3.253,0,0,0,3.427,1.856,5.191,5.191,0,0,1,.819,0,3.22,3.22,0,0,1,.348.042C739.99,550.666,739.246,553.026,737.7,552.813Z" transform="translate(-572.626 -388.168)" fill="#ffb9b9"/>
    <path id="Path_72" data-name="Path 72" d="M713.277,531.782c-.081,6.741-.4,12.594-.4,12.594s-.4,1.5-.937,3.5a17.6,17.6,0,0,1-1.313-4.159c-.085-1.83-3.7-18.418-3.7-18.418a.475.475,0,0,0-.02-.112l.5.112S713.347,525.041,713.277,531.782Z" transform="translate(-573.112 -415.711)" opacity="0.1"/>
    <path id="Path_73" data-name="Path 73" d="M658.565,530.072c-.081,6.741-.4,12.594-.4,12.594s-.309,1.151-.742,2.786c-.95,3.574-2.508,9.464-2.784,10.676-.4,1.751-5.691,14.1-5.691,14.1a37,37,0,0,0-1.044,4.73c0,.961-.722,4.815-.722,4.815v3.445s0,3.22-.188,5.369c-.017.173-.035.339-.05.495a3.376,3.376,0,0,1-.322,1.348c-.558.643-2.963,4.489-2.963,4.489s-.311,0-.788-.011h0a12.961,12.961,0,0,1-4.235-.689,1.6,1.6,0,0,1-.819-.657c-.586-1.171-.219-3.979-.061-4.992.035-.236.061-.376.061-.376a.222.222,0,0,1,.02-.074c.186-.781,1.775-7.551.943-9.061-.875-1.6,2-5.047,2-5.047s1.521-5.211,1.442-7.133c0,0,2.165-9.457,1.6-12.1a25.387,25.387,0,0,1,.239-5.408c.352-3.22.924-7.157,1.368-10.046.361-2.357.639-4.018.639-4.018s-.133-.042-.346-.09a3.145,3.145,0,0,0-2.3.169c-.875.641-.562-6.811-.562-6.811L649.99,523l2.718.591a4.322,4.322,0,0,1,.552.02C654.737,523.742,658.631,524.6,658.565,530.072Z" transform="translate(-518.891 -414)" fill="#ffb9b9"/>
    <path id="Path_74" data-name="Path 74" d="M772.074,740.588a1.294,1.294,0,0,1-.451.372c-1.055.562-6.665,2.246-9.23,1.924a17.321,17.321,0,0,1-4.008-.965,6.854,6.854,0,0,1-.875-.4H757.5c-.5-.335-1.239-3.355-1.4-4.027-.018-.085-.031-.134-.031-.134s-3.283-6.566-4.568-4.406l.875,10.74h-1.2s-.16-10.661-3.125-13.546c0,0-.858-1.571.961-1.121s6.172,3.366,6.654,5.049a15.9,15.9,0,0,0,1.313,2.957c.341.622.6,1.048.6,1.048l11.784,1.191,2.642.265A.924.924,0,0,1,772.074,740.588Z" transform="translate(-605.089 -574.873)" fill="#3f3d56"/>
    <path id="Path_75" data-name="Path 75" d="M806.517,780.764a1.293,1.293,0,0,1-.451.372c-1.055.563-6.665,2.246-9.23,1.924a17.321,17.321,0,0,1-4.008-.965,6.854,6.854,0,0,1-.875-.4h-.013a73.721,73.721,0,0,1,11.926-1.313A7.6,7.6,0,0,1,806.517,780.764Z" transform="translate(-639.532 -615.048)" opacity="0.1"/>
    <path id="Path_76" data-name="Path 76" d="M804.858,759.726c0,.131,0,.269.013.411-2.918-.254-10.915-.641-10.915-.641a20.885,20.885,0,0,0-.676-2.408c2.105-.965,5.122-2,7.719-1.519a3.292,3.292,0,0,0,3.537,2.075,5.2,5.2,0,0,1,.819,0,4.539,4.539,0,0,0-.5,2.081Z" transform="translate(-640.579 -595.571)" opacity="0.1"/>
    <path id="Path_77" data-name="Path 77" d="M805.49,760.856v.19l-.219-.02c-2.917-.254-10.915-.641-10.915-.641a20.288,20.288,0,0,0-.576-2.092c2.075-.967,5.1-2.044,7.728-1.6a3.253,3.253,0,0,0,3.427,1.856,5.191,5.191,0,0,1,.819,0,3.236,3.236,0,0,1,.348.042A4.5,4.5,0,0,0,805.49,760.856Z" transform="translate(-640.969 -596.462)" opacity="0.1"/>
    <path id="Path_78" data-name="Path 78" d="M798.82,760.884a5.441,5.441,0,0,0,.077.928h-.026l-11.033,1.725a6.871,6.871,0,0,1-.875-.4h-.013c-.5-.335-1.239-3.355-1.4-4.027.254-.138.552-.293.886-.46,2.394-1.2,6.66-2.9,9.821-1.515,0,0,2.565,1.167,3.526.983A4.1,4.1,0,0,0,798.82,760.884Z" transform="translate(-634.54 -596.49)" fill="#3f3d56"/>
    <path id="Path_79" data-name="Path 79" d="M646.914,823.072a3.377,3.377,0,0,1-.322,1.348c-.558.643-2.964,4.489-2.964,4.489s-.315,0-.8-.011c-.063-1.035-.457-2.742-2.327-2.78-1.477-.028-1.863,1.083-1.909,2.09a1.6,1.6,0,0,1-.819-.657c-.587-1.171-.219-3.979-.061-4.992A16.484,16.484,0,0,0,646.914,823.072Z" transform="translate(-518.859 -647.996)" opacity="0.1"/>
    <path id="Path_80" data-name="Path 80" d="M646.964,820.968c-.018.173-.035.339-.05.495a3.378,3.378,0,0,1-.322,1.348c-.558.643-2.964,4.489-2.964,4.489s-.311,0-.788-.011c.015-.845-.133-3.215-2.338-3.261-1.72-.033-1.97,1.482-1.909,2.572a1.6,1.6,0,0,1-.819-.657c-.587-1.171-.219-3.979-.061-4.992.035-.236.061-.376.061-.376a.222.222,0,0,1,.02-.074A16.436,16.436,0,0,0,646.964,820.968Z" transform="translate(-518.859 -646.386)" opacity="0.1"/>
    <path id="Path_81" data-name="Path 81" d="M634.888,821s5.089,2.042,9.9.479l.289,5.649s-4.618,1.62-4.815,1.094c0,0,.359-3.5-2.324-3.552s-1.764,3.662-1.764,3.662-2.042-.63-2-1.151S634.461,821.492,634.888,821Z" transform="translate(-516.291 -646.777)" fill="#3f3d56"/>
    <path id="Path_82" data-name="Path 82" d="M680.019,490.164c-4.557-1.361-7.341,6.207-7.814,7.608-.048.14-.072.219-.072.219-.138.031-.276.063-.407.1-7.853,2.06-7.38,9.193-7.067,11.27a3.145,3.145,0,0,0-2.3.169c-.875.641-.562-6.811-.562-6.811l7.133-5.551,2.718.591a.475.475,0,0,0-.02-.112c-.14-.858-.906-6.52,2.985-7.264l4.92-.453h0Z" transform="translate(-537.83 -388.168)" opacity="0.1"/>
    <path id="Path_83" data-name="Path 83" d="M536.363,485.8l-1.6,3.927s-6.651,9.217-.56,13.3,26.921,2.994,26.921,2.994l1.532-13.57s-2.329-9.689,7.361-11.944c0,0,2.865-9.326,7.879-7.827l-9.567-4.835-13.132,4.89-11.14,6.01Z" transform="translate(-436.197 -370.921)" fill="#3f3d56"/>
    <path id="Path_84" data-name="Path 84" d="M536.363,485.8l-1.6,3.927s-6.651,9.217-.56,13.3,26.921,2.994,26.921,2.994l1.532-13.57s-2.329-9.689,7.361-11.944c0,0,2.865-9.326,7.879-7.827l-9.567-4.835-13.132,4.89-11.14,6.01Z" transform="translate(-436.197 -370.921)" opacity="0.1"/>
    <path id="Path_85" data-name="Path 85" d="M555.08,560.825s2-4.747,4.489-6.1S555.08,560.825,555.08,560.825Z" transform="translate(-454.513 -438.651)" opacity="0.1"/>
    <path id="Path_86" data-name="Path 86" d="M594.26,503.368s17.871-11.62,24.362-11.381Z" transform="translate(-485.118 -389.772)" opacity="0.1"/>
    <path id="Path_87" data-name="Path 87" d="M584.055,334.616c3.318.328,5.719,3.589,9.009,4.121a1.484,1.484,0,0,0,.836-.046c.84-.37.563-1.62.149-2.438q-.932-1.843-1.867-3.684a7.668,7.668,0,0,0-1.718-2.5,6.492,6.492,0,0,0-2.261-1.127c-3.165-1.026-6.732-1.285-9.737.14-1.69.8-6.242,4.92-3.859,6.9C576.743,337.766,581.549,334.367,584.055,334.616Z" transform="translate(-469.238 -261.756)" opacity="0.1"/>
    <path id="Path_88" data-name="Path 88" d="M584.055,333.519c3.318.328,5.719,3.592,9.009,4.121a1.484,1.484,0,0,0,.836-.046c.84-.37.563-1.62.149-2.438q-.932-1.843-1.867-3.684a7.668,7.668,0,0,0-1.718-2.5,6.493,6.493,0,0,0-2.261-1.127c-3.165-1.024-6.732-1.285-9.737.14-1.69.8-6.242,4.92-3.859,6.9C576.743,336.668,581.549,333.269,584.055,333.519Z" transform="translate(-469.238 -260.899)" fill="#3f3d56"/>
    <path id="Path_89" data-name="Path 89" d="M549.38,542.657a13.821,13.821,0,0,0,6.015-.657" transform="translate(-450.061 -428.842)" opacity="0.1"/>
    <path id="Path_90" data-name="Path 90" d="M462.59,538.21s1.532.219,1.532,1.269S462.59,538.21,462.59,538.21Z" transform="translate(-382.266 -425.881)" opacity="0.1"/>
    <path id="Path_91" data-name="Path 91" d="M466.07,556.361s.28-.488.762.438S466.07,556.361,466.07,556.361Z" transform="translate(-384.985 -439.959)" opacity="0.1"/>
    <path id="Path_92" data-name="Path 92" d="M593.9,358.608a1.506,1.506,0,0,1-.836.048c-3.283-.532-5.691-3.793-9.009-4.124-2.508-.25-7.312,3.15-9.451,1.372a1.751,1.751,0,0,1-.657-1.169,1.775,1.775,0,0,0,.657,1.65c2.138,1.777,6.943-1.622,9.451-1.372,3.316.328,5.719,3.592,9.009,4.121a1.486,1.486,0,0,0,.836-.046,1.09,1.09,0,0,0,.527-1.239A.9.9,0,0,1,593.9,358.608Z" transform="translate(-469.233 -282.395)" opacity="0.1"/>
    <path id="Path_93" data-name="Path 93" d="M650.17,527.406s9.792-2.561,12.445-2Z" transform="translate(-528.791 -415.819)" opacity="0.1"/>
    <path id="Path_94" data-name="Path 94" d="M400.748,776.043l.468-5.813,4.625-5.343a23.445,23.445,0,0,1-11.221-.337l4.857,5.691.186,5.8c-1.477.164-2.6.956-2.6,1.911,0,1.073,1.418,1.944,3.165,1.944s3.167-.875,3.167-1.944C403.4,776.993,402.25,776.194,400.748,776.043Z" transform="translate(-329.173 -602.682)" fill="#d4dfec" opacity="0.5"/>
    <path id="Path_95" data-name="Path 95" d="M397.2,765.38l3.9,4.31a1.751,1.751,0,0,0,1.313.58h0a1.751,1.751,0,0,0,1.313-.591l3.7-4.159A20.67,20.67,0,0,1,397.2,765.38Z" transform="translate(-331.188 -603.331)" fill="#fecd0f" opacity="0.5"/>
    <ellipse id="Ellipse_9" data-name="Ellipse 9" cx="6.408" cy="2.46" rx="6.408" ry="2.46" transform="translate(64.821 158.445)" fill="#d4dfec" opacity="0.5"/>
    <ellipse id="Ellipse_10" data-name="Ellipse 10" cx="5.688" cy="1.955" rx="5.688" ry="1.955" transform="translate(65.447 159.134)" fill="#fecd0f"/>
    <path id="Path_96" data-name="Path 96" d="M327.272,746.07l-.972,2.55.893-2.543" transform="translate(-254.508 -582.775)" fill="#fecd0f" opacity="0.5"/>
    <path id="Path_97" data-name="Path 97" d="M428.24,743.366l2.543-7.236a.144.144,0,0,1,.188-.085h0a.142.142,0,0,1,.079.182l-2.721,7.131" transform="translate(-355.435 -580.408)" fill="#3f3d56" opacity="0.5"/>
    <path id="Path_98" data-name="Path 98" d="M433.16,740.3l1.466-4.174a.144.144,0,0,1,.188-.085h0a.142.142,0,0,1,.079.182l-1.565,4.1" transform="translate(-359.278 -580.408)" fill="#3f3d56"/>
    <line id="Line_1" data-name="Line 1" y1="3.062" x2="1.077" transform="translate(72.805 159.896)" fill="#3f3d56" opacity="0.5"/>
    <circle id="Ellipse_11" data-name="Ellipse 11" cx="1.245" cy="1.245" r="1.245" transform="translate(73.066 157.799)" fill="#fecd0f"/>
    <circle id="Ellipse_12" data-name="Ellipse 12" cx="1.245" cy="1.245" r="1.245" transform="translate(73.066 157.799)" fill="#fff" opacity="0.5"/>
    <circle id="Ellipse_13" data-name="Ellipse 13" cx="0.525" cy="0.525" r="0.525" transform="translate(73.922 158.359)" fill="#fecd0f"/>
    <circle id="Ellipse_14" data-name="Ellipse 14" cx="0.525" cy="0.525" r="0.525" transform="translate(73.922 158.359)" opacity="0.25"/>
    <path id="Path_99" data-name="Path 99" d="M429.56,752.78a1.245,1.245,0,0,0,2.243.516A10.145,10.145,0,0,0,429.56,752.78Z" transform="translate(-356.466 -593.488)" fill="#fecd0f" opacity="0.3"/>
    <rect id="Rectangle_467" data-name="Rectangle 467" width="1.243" height="27.993" transform="translate(26.083 114.089)" fill="#535461"/>
    <path id="Path_100" data-name="Path 100" d="M195.921,667.034l-.079,1.261-.109,1.779-.046.742-.109,1.782-.048.742-.109,1.779-1.256,20.241a3.427,3.427,0,0,1-3.421,3.215h-6.516a3.427,3.427,0,0,1-3.421-3.215l-1.256-20.241-.109-1.779-.046-.742-.112-1.782-.046-.742-.109-1.779-.079-1.261a1.775,1.775,0,0,1,1.773-1.884H194.15a1.775,1.775,0,0,1,1.771,1.884Z" transform="translate(-160.78 -525.038)" fill="#3f3d56"/>
    <path id="Path_101" data-name="Path 101" d="M98.825,654.52l-.109,1.779h-16.5l-.109-1.779Z" transform="translate(-63.764 -511.263)" fill="#9d9cb5"/>
    <path id="Path_102" data-name="Path 102" d="M99.224,666.04l-.109,1.782H82.932l-.112-1.782Z" transform="translate(-64.318 -520.261)" fill="#9d9cb5"/>
    <path id="Path_103" data-name="Path 103" d="M99.629,677.57l-.109,1.779H83.652l-.112-1.779Z" transform="translate(-64.881 -529.268)" fill="#9d9cb5"/>
    <path id="Path_104" data-name="Path 104" d="M113.757,574.427a32.264,32.264,0,0,1,10.256,13.432,32.275,32.275,0,0,1-15.967-5.537A32.25,32.25,0,0,1,97.79,568.89,32.269,32.269,0,0,1,113.757,574.427Z" transform="translate(-97.31 -449.846)" fill="#fecd0f"/>
    <path id="Path_105" data-name="Path 105" d="M97.79,568.89s9.057,5.034,11.963,9.193,14.259,9.779,14.259,9.779" transform="translate(-97.31 -449.846)" fill="none" stroke="#535461" stroke-miterlimit="10" stroke-width="2"/>
    <path id="Path_106" data-name="Path 106" d="M161.081,535.244a17.534,17.534,0,0,1,5.581,7.31A15.958,15.958,0,0,1,152.39,532.23,17.632,17.632,0,0,1,161.081,535.244Z" transform="translate(-139.96 -421.21)" fill="#fecd0f"/>
    <path id="Path_107" data-name="Path 107" d="M152.39,532.2s4.929,2.736,6.511,5,7.761,5.323,7.761,5.323" transform="translate(-139.96 -421.187)" fill="none" stroke="#535461" stroke-miterlimit="10" stroke-width="2"/>
    <path id="Path_108" data-name="Path 108" d="M224.195,554.992a24.293,24.293,0,0,0-5.485,11.478,22.063,22.063,0,0,0,16.4-18.02A24.281,24.281,0,0,0,224.195,554.992Z" transform="translate(-191.764 -433.88)" fill="#fecd0f"/>
    <path id="Path_109" data-name="Path 109" d="M235.105,548.45s-5.9,5.1-7.4,8.615-9,9.411-9,9.411" transform="translate(-191.764 -433.88)" fill="none" stroke="#535461" stroke-miterlimit="10" stroke-width="2"/>
    <path id="Path_110" data-name="Path 110" d="M950.892,667.11s1.265,1.652-.584,4.159-3.373,4.6-2.756,6.161c0,0,2.788-4.636,5.058-4.7S953.389,669.9,950.892,667.11Z" transform="translate(-760.976 -526.569)" opacity="0.1"/>
    <path id="Path_111" data-name="Path 111" d="M951.148,667.11a2,2,0,0,1,.258.519c2.215,2.6,3.395,5.034,1.265,5.091-1.983.057-4.362,3.6-4.931,4.5a1.582,1.582,0,0,0,.068.2s2.788-4.636,5.058-4.7S953.645,669.9,951.148,667.11Z" transform="translate(-761.232 -526.569)" opacity="0.1"/>
    <path id="Path_112" data-name="Path 112" d="M973.011,675.409c0,.582-.066,1.053-.147,1.053s-.144-.471-.144-1.053.081-.309.162-.309S973.011,674.827,973.011,675.409Z" transform="translate(-780.745 -532.761)" fill="#3f3d56"/>
    <path id="Path_113" data-name="Path 113" d="M974.176,678.49c-.512.28-.956.449-1,.376s.344-.355.856-.633.309-.074.348,0S974.686,678.212,974.176,678.49Z" transform="translate(-781.102 -535.147)" fill="#3f3d56"/>
    <path id="Path_114" data-name="Path 114" d="M922.653,667.11s-1.265,1.652.582,4.159,3.373,4.6,2.758,6.161c0,0-2.788-4.636-5.06-4.7S920.156,669.9,922.653,667.11Z" transform="translate(-739.417 -526.569)" fill="#3f3d56"/>
    <path id="Path_115" data-name="Path 115" d="M950.892,667.11s1.265,1.652-.584,4.159-3.373,4.6-2.756,6.161c0,0,2.788-4.636,5.058-4.7S953.389,669.9,950.892,667.11Z" transform="translate(-760.976 -526.569)" fill="#d4dfec"/>
    <path id="Path_116" data-name="Path 116" d="M922.653,667.11s-1.265,1.652.582,4.159,3.373,4.6,2.758,6.161c0,0-2.788-4.636-5.06-4.7S920.156,669.9,922.653,667.11Z" transform="translate(-739.417 -526.569)" opacity="0.1"/>
    <path id="Path_117" data-name="Path 117" d="M922.653,667.11a2,2,0,0,0-.258.519c-2.215,2.6-3.395,5.034-1.267,5.091,1.983.057,4.362,3.6,4.933,4.5a2.018,2.018,0,0,1-.068.2s-2.788-4.644-5.06-4.7S920.156,669.9,922.653,667.11Z" transform="translate(-739.417 -526.569)" opacity="0.1"/>
    <path id="Path_118" data-name="Path 118" d="M922,675.409c0,.582.066,1.053.147,1.053s.147-.471.147-1.053-.081-.309-.162-.309S922,674.827,922,675.409Z" transform="translate(-741.126 -532.761)" fill="#d4dfec"/>
    <path id="Path_119" data-name="Path 119" d="M917.245,678.49c.51.28.956.449,1,.376s-.346-.355-.856-.633-.311-.074-.348,0S916.729,678.212,917.245,678.49Z" transform="translate(-737.168 -535.147)" fill="#d4dfec"/>
    <path id="Path_120" data-name="Path 120" d="M930.591,701.243l-.063.517-.088.729-.037.3-.09.731-.037.3-.09.729-1.011,8.3c-.09.74-1.3,1.313-2.76,1.313h-5.266c-1.462,0-2.67-.578-2.76-1.313l-1.013-8.3-.088-.729-.037-.3-.092-.731-.035-.3-.09-.729-.044-.517c-.05-.418.6-.773,1.431-.773h10.753C929.987,700.479,930.643,700.833,930.591,701.243Z" transform="translate(-737.21 -552.627)" fill="#3f3d56"/>
    <path id="Path_121" data-name="Path 121" d="M833.417,681.4l-.09.729H820.02l-.09-.729Z" transform="translate(-640.097 -532.259)" fill="#9d9cb5"/>
    <path id="Path_122" data-name="Path 122" d="M833.743,686.12l-.088.731H820.6l-.09-.731Z" transform="translate(-640.551 -535.946)" fill="#9d9cb5"/>
    <path id="Path_123" data-name="Path 123" d="M834.069,690.85l-.088.729h-12.8l-.088-.729Z" transform="translate(-641.004 -539.641)" fill="#9d9cb5"/>
  </g>
</svg>
