<svg xmlns="http://www.w3.org/2000/svg" width="211.74" height="156.005" viewBox="0 0 211.74 156.005">
  <g id="Group_8" data-name="Group 8" transform="translate(0 -0.001)">
    <rect id="Rectangle_470" data-name="Rectangle 470" width="89.002" height="2.611" transform="translate(122.738 57.767)" fill="#e6e6e6"/>
    <rect id="Rectangle_471" data-name="Rectangle 471" width="22.547" height="22.547" transform="translate(130.095 35.932)" fill="#e6e6e6"/>
    <rect id="Rectangle_472" data-name="Rectangle 472" width="13.528" height="13.528" transform="translate(134.605 40.442)" fill="#ccc"/>
    <rect id="Rectangle_473" data-name="Rectangle 473" width="5.696" height="22.547" transform="translate(180.649 35.932)" fill="#e6e6e6"/>
    <rect id="Rectangle_474" data-name="Rectangle 474" width="5.696" height="2.611" transform="translate(180.649 39.492)" fill="#ccc"/>
    <rect id="Rectangle_475" data-name="Rectangle 475" width="5.696" height="2.611" transform="translate(180.649 50.884)" fill="#ccc"/>
    <rect id="Rectangle_476" data-name="Rectangle 476" width="5.696" height="22.547" transform="translate(171.867 35.932)" fill="#e6e6e6"/>
    <rect id="Rectangle_477" data-name="Rectangle 477" width="5.696" height="2.611" transform="translate(171.867 39.492)" fill="#ccc"/>
    <rect id="Rectangle_478" data-name="Rectangle 478" width="5.696" height="2.611" transform="translate(171.867 50.884)" fill="#ccc"/>
    <rect id="Rectangle_479" data-name="Rectangle 479" width="5.696" height="22.547" transform="matrix(0.896, -0.444, 0.444, 0.896, 186.148, 38.366)" fill="#e6e6e6"/>
    <rect id="Rectangle_480" data-name="Rectangle 480" width="5.696" height="2.611" transform="matrix(0.896, -0.444, 0.444, 0.896, 187.727, 41.557)" fill="#ccc"/>
    <rect id="Rectangle_481" data-name="Rectangle 481" width="5.696" height="2.611" transform="matrix(0.896, -0.444, 0.444, 0.896, 192.782, 51.766)" fill="#ccc"/>
    <path id="Path_124" data-name="Path 124" d="M508.695,170.382l2.869,4.968,2.868,4.968H502.958l2.868-4.968Z" transform="translate(-370.174 -125.4)" fill="#e6e6e6"/>
    <path id="Path_125" data-name="Path 125" d="M527.574,173.978l2.868,4.968,2.869,4.968H521.837l2.868-4.968Z" transform="translate(-384.069 -128.046)" fill="#e6e6e6"/>
    <circle id="Ellipse_15" data-name="Ellipse 15" cx="1.661" cy="1.661" r="1.661" transform="translate(143.861 41.153)" fill="#e6e6e6"/>
    <rect id="Rectangle_482" data-name="Rectangle 482" width="89.002" height="2.611" transform="translate(211.74 24.54) rotate(180)" fill="#e6e6e6"/>
    <rect id="Rectangle_483" data-name="Rectangle 483" width="22.547" height="22.547" transform="translate(204.382 22.641) rotate(180)" fill="#e6e6e6"/>
    <rect id="Rectangle_484" data-name="Rectangle 484" width="13.528" height="13.528" transform="translate(199.873 18.131) rotate(180)" fill="#ccc"/>
    <rect id="Rectangle_485" data-name="Rectangle 485" width="5.696" height="22.547" transform="translate(153.829 22.641) rotate(180)" fill="#e6e6e6"/>
    <rect id="Rectangle_486" data-name="Rectangle 486" width="5.696" height="2.611" transform="translate(153.829 6.265) rotate(180)" fill="#ccc"/>
    <rect id="Rectangle_487" data-name="Rectangle 487" width="5.696" height="2.611" transform="translate(153.829 17.657) rotate(180)" fill="#ccc"/>
    <rect id="Rectangle_488" data-name="Rectangle 488" width="5.696" height="22.547" transform="translate(162.611 22.641) rotate(180)" fill="#e6e6e6"/>
    <rect id="Rectangle_489" data-name="Rectangle 489" width="5.696" height="2.611" transform="translate(162.611 6.265) rotate(180)" fill="#ccc"/>
    <rect id="Rectangle_490" data-name="Rectangle 490" width="5.696" height="2.611" transform="translate(162.611 17.657) rotate(180)" fill="#ccc"/>
    <rect id="Rectangle_491" data-name="Rectangle 491" width="5.696" height="22.547" transform="matrix(-0.896, -0.444, 0.444, -0.896, 138.326, 22.734)" fill="#e6e6e6"/>
    <rect id="Rectangle_492" data-name="Rectangle 492" width="5.696" height="2.611" transform="matrix(-0.896, -0.444, 0.444, -0.896, 145.592, 8.058)" fill="#ccc"/>
    <rect id="Rectangle_493" data-name="Rectangle 493" width="5.696" height="2.611" transform="matrix(-0.896, -0.444, 0.444, -0.896, 140.537, 18.268)" fill="#ccc"/>
    <path id="Path_126" data-name="Path 126" d="M726.251,34.634,723.382,39.6l-2.868,4.968h11.474L729.119,39.6Z" transform="translate(-530.294 -25.49)" fill="#e6e6e6"/>
    <path id="Path_127" data-name="Path 127" d="M707.372,38.23,704.5,43.2l-2.868,4.968h11.474L710.241,43.2Z" transform="translate(-516.399 -28.137)" fill="#e6e6e6"/>
    <circle id="Ellipse_16" data-name="Ellipse 16" cx="1.661" cy="1.661" r="1.661" transform="translate(187.294 5.315)" fill="#e6e6e6"/>
    <rect id="Rectangle_494" data-name="Rectangle 494" width="89.002" height="2.611" transform="translate(211.74 96.216) rotate(180)" fill="#e6e6e6"/>
    <rect id="Rectangle_495" data-name="Rectangle 495" width="22.547" height="22.547" transform="translate(204.382 94.317) rotate(180)" fill="#e6e6e6"/>
    <rect id="Rectangle_496" data-name="Rectangle 496" width="13.528" height="13.528" transform="translate(199.873 89.808) rotate(180)" fill="#ccc"/>
    <rect id="Rectangle_497" data-name="Rectangle 497" width="5.696" height="22.547" transform="translate(153.829 94.317) rotate(180)" fill="#e6e6e6"/>
    <rect id="Rectangle_498" data-name="Rectangle 498" width="5.696" height="2.611" transform="translate(153.829 77.941) rotate(180)" fill="#ccc"/>
    <rect id="Rectangle_499" data-name="Rectangle 499" width="5.696" height="2.611" transform="translate(153.829 89.333) rotate(180)" fill="#ccc"/>
    <rect id="Rectangle_500" data-name="Rectangle 500" width="5.696" height="22.547" transform="translate(162.611 94.317) rotate(180)" fill="#e6e6e6"/>
    <rect id="Rectangle_501" data-name="Rectangle 501" width="5.696" height="2.611" transform="translate(162.611 77.941) rotate(180)" fill="#ccc"/>
    <rect id="Rectangle_502" data-name="Rectangle 502" width="5.696" height="2.611" transform="translate(162.611 89.333) rotate(180)" fill="#ccc"/>
    <rect id="Rectangle_503" data-name="Rectangle 503" width="5.696" height="22.547" transform="matrix(-0.896, -0.444, 0.444, -0.896, 138.326, 94.411)" fill="#e6e6e6"/>
    <rect id="Rectangle_504" data-name="Rectangle 504" width="5.696" height="2.611" transform="matrix(-0.896, -0.444, 0.444, -0.896, 145.592, 79.735)" fill="#ccc"/>
    <rect id="Rectangle_505" data-name="Rectangle 505" width="5.696" height="2.611" transform="matrix(-0.896, -0.444, 0.444, -0.896, 140.537, 89.944)" fill="#ccc"/>
    <path id="Path_128" data-name="Path 128" d="M726.251,306.129l-2.868,4.968-2.868,4.969h11.474l-2.869-4.969Z" transform="translate(-530.294 -225.309)" fill="#e6e6e6"/>
    <path id="Path_129" data-name="Path 129" d="M707.372,309.725l-2.868,4.968-2.868,4.969h11.474l-2.868-4.969Z" transform="translate(-516.399 -227.955)" fill="#e6e6e6"/>
    <circle id="Ellipse_17" data-name="Ellipse 17" cx="1.661" cy="1.661" r="1.661" transform="translate(187.294 76.992)" fill="#e6e6e6"/>
    <ellipse id="Ellipse_18" data-name="Ellipse 18" cx="104.844" cy="7.446" rx="104.844" ry="7.446" transform="translate(0 141.113)" fill="#e6e6e6"/>
    <path id="Path_130" data-name="Path 130" d="M751.927,669.941c-17.1-3.043-35.791-2.537-55.4,0,8.938-7.546,16.652-15.091,7.714-22.637,17.435,3.6,19.877,3.233,39.271,0C739.013,654.85,747.428,662.4,751.927,669.941Z" transform="translate(-565.173 -517.211)" fill="#6c63ff"/>
    <path id="Path_131" data-name="Path 131" d="M751.927,669.941c-17.1-3.043-35.791-2.537-55.4,0,8.938-7.546,16.652-15.091,7.714-22.637,17.435,3.6,19.877,3.233,39.271,0C739.013,654.85,747.428,662.4,751.927,669.941Z" transform="translate(-565.173 -517.211)" opacity="0.2"/>
    <path id="Path_132" data-name="Path 132" d="M759.382,670.481c-14.522-2.429-30.4-2.025-47.061,0,7.593-6.023,14.145-12.046,6.553-18.069,14.81,2.871,16.885,2.581,33.36,0C748.412,658.435,755.561,664.458,759.382,670.481Z" transform="translate(-576.798 -520.971)" fill="#6c63ff"/>
    <circle id="Ellipse_19" data-name="Ellipse 19" cx="7.738" cy="7.738" r="7.738" transform="translate(169.315 124.33)" fill="#2f2e41"/>
    <path id="Path_133" data-name="Path 133" d="M513.511,466.249l5.361.894,2.681,7.744-7.744,4.766-8.936-13.4h8.638Z" transform="translate(-371.583 -343.156)" fill="#e2a1a0"/>
    <circle id="Ellipse_20" data-name="Ellipse 20" cx="12.51" cy="12.51" r="12.51" transform="translate(144.608 109.988)" fill="#ffb9b9"/>
    <path id="Path_134" data-name="Path 134" d="M404.763,445.919s-30.381,3.276-35.742,2.681a66.375,66.375,0,0,1-7.744-1.191s-3.574,4.766-1.787,6.851a12.889,12.889,0,0,0,3.574,2.979s3.276-.894,5.659,0S395.232,462,399.4,458.429,404.763,445.919,404.763,445.919Z" transform="translate(-316.747 -368.993)" fill="#2f2e41"/>
    <path id="Path_135" data-name="Path 135" d="M415.716,543.155s-19.956-5.659-23.53-30.679v-2.383s-3.949,6.927-5.362,8.34c-1.638,1.638-7.446,16.382-7.148,17.871a3.568,3.568,0,0,1,0,2.085l-8.638-.894v-2.681s4.617-13.85,4.915-17.127,11.467-26.062,11.467-26.062,4.17-8.638,11.318,0,7.744,14.595,7.744,14.595l9.233,17.871Z" transform="translate(-325.615 -399.808)" fill="#2f2e41"/>
    <path id="Path_136" data-name="Path 136" d="M324.489,430.922l-9.531-3.276s-8.936-6.553-6.851,0,11.616,20.85,14.3,19.361,5.9-5.186,5.186-5.72S322.107,436.879,324.489,430.922Z" transform="translate(-279.067 -353.401)" fill="#2f2e41"/>
    <path id="Path_137" data-name="Path 137" d="M338.092,659.259l-7.694,3.758s-9.3,1.431-4.115,4.115,19.5,5.547,20.22,3.042.432-6.663-.321-6.552S340.239,664.269,338.092,659.259Z" transform="translate(-291.517 -526.01)" fill="#2f2e41"/>
    <path id="Path_138" data-name="Path 138" d="M522.436,600.628s-3.872,16.68,2.681,20.254,52.422,4.17,56-2.383,1.787-6.553,1.787-6.553l-9.531-10.723,7.744-.6a2.78,2.78,0,0,0-2.681-2.681c-2.681-.3-11.021-3.276-18.169-1.191s-11.318-4.17-11.318-4.17Z" transform="translate(-436.207 -476.939)" fill="#575a89"/>
    <path id="Path_139" data-name="Path 139" d="M293.321,266.917l-5.064,27.7,34.849-4.17,6.255-25.02Z" transform="translate(-212.155 -195.353)" fill="#3f3d56"/>
    <path id="Path_140" data-name="Path 140" d="M299.761,270.866l-4.17,24.722,31.721-3.723,6.106-22.488Z" transform="translate(-217.553 -198.259)" fill="#fff"/>
    <path id="Path_141" data-name="Path 141" d="M287.788,376.291l-1.191-.3-.6,1.191,9.531,26.509.9-.343.295-1.742Z" transform="translate(-210.495 -276.728)" fill="#b3b3b3"/>
    <path id="Path_142" data-name="Path 142" d="M288.257,364.07l9.531,27.7,36.04-5.361L323.106,360.2Z" transform="translate(-212.155 -265.103)" fill="#d0cde1"/>
    <path id="Path_143" data-name="Path 143" d="M306.309,363.177v1.489l26.509-2.979-.3-1.489Z" transform="translate(-225.442 -265.103)" fill="#3f3d56"/>
    <path id="Path_144" data-name="Path 144" d="M308.565,375.289l4.17,11.616,27.1-3.276-4.766-11.021Z" transform="translate(-227.102 -274.237)" fill="#3f3d56"/>
    <path id="Path_145" data-name="Path 145" d="M602.625,565.262l-.894-2.383s-6.851-11.914-10.425-9.531,7.446,14,7.446,14h3.574Z" transform="translate(-487.207 -447.828)" fill="#ffb9b9"/>
    <path id="Path_146" data-name="Path 146" d="M546.043,567.032l-.894-3.574s-2.383-11.021,1.787-10.425,5.361,11.021,5.361,11.021l-.3,2.383Z" transform="translate(-453.262 -447.811)" fill="#ffb9b9"/>
    <path id="Path_147" data-name="Path 147" d="M554.188,599.4s-7.744-1.191-8.042.6-1.787,28.594,5.659,29.488,44.38,4.766,40.508-4.468-9.829-8.042-9.829-8.042l-25.317,2.681Z" transform="translate(-454.258 -481.667)" fill="#575a89"/>
    <path id="Path_148" data-name="Path 148" d="M430.543,443.554l-7.893-5.51-5.213,4.021,6.553,7.148Z" transform="translate(-307.231 -322.397)" fill="#575a89"/>
    <path id="Path_149" data-name="Path 149" d="M386.976,479.224l1.191,11.318,20.552-1.191-17.871-.3Z" transform="translate(-284.812 -352.705)" opacity="0.2"/>
    <circle id="Ellipse_21" data-name="Ellipse 21" cx="14.893" cy="14.893" r="14.893" transform="translate(148.401 109.878)" fill="#2f2e41"/>
    <path id="Path_150" data-name="Path 150" d="M328.309,286.977l18.467-.643,1.787-6.8-19.063.575Z" transform="translate(-241.633 -205.733)" fill="#6c63ff"/>
    <path id="Path_151" data-name="Path 151" d="M310.258,316.59l28-.894.3-1.191-28,.986Z" transform="translate(-228.348 -231.473)" fill="#e6e6e6"/>
    <path id="Path_152" data-name="Path 152" d="M308,327.872l28-.894.3-1.191-28,.986Z" transform="translate(-226.687 -239.777)" fill="#e6e6e6"/>
    <path id="Path_153" data-name="Path 153" d="M306.873,336.9l28-.893.3-1.191-28,.986Z" transform="translate(-225.857 -246.42)" fill="#e6e6e6"/>
  </g>
</svg>
