<svg xmlns="http://www.w3.org/2000/svg" width="802.707" height="433.166" viewBox="0 0 802.707 433.166">
  <g id="Group_1" data-name="Group 1" transform="translate(0.001 -0.04)">
    <path id="Path_1" data-name="Path 1" d="M830.706,419.373a127.646,127.646,0,0,1-4.806,34.8,126.348,126.348,0,0,1-13.521,31.07c0,35.154-23.73,65.536-58.175,79.99a117.387,117.387,0,0,1-45.419,8.981h-528.4c-28.242,0-54.414-7.62-75.878-20.6A130.338,130.338,0,0,1,87.08,541.063c-23.857-20.5-38.648-48.836-38.648-80.13a127.024,127.024,0,0,1,53.628-184.545,122.446,122.446,0,0,1,17.9-6.4q3.249-.884,6.568-1.586a123.063,123.063,0,0,1,17.9-2.456q3.263-.2,6.561-.232h1.207c2.428,0,4.834.084,7.227.225l.786-1.333q1.445-2.414,2.961-4.778,2.737-4.308,5.74-8.49,3.143-4.414,6.561-8.687l.582-.7q1.937-2.414,3.957-4.771,6.315-7.36,13.332-14.279c50.6-49.594,129.864-81.52,218.976-81.52,69.339,0,132.72,19.331,181.268,51.271a122.216,122.216,0,0,1,60.3-15.851c68.581,0,124.195,56.393,124.195,125.956a129.785,129.785,0,0,1-.7,13.177A126.3,126.3,0,0,1,830.706,419.373Z" transform="translate(-28 -141.34)" fill="#215b67" opacity="0.15"/>
    <circle id="Ellipse_1" data-name="Ellipse 1" cx="24.467" cy="24.467" r="24.467" transform="translate(490.92 230.874)" fill="#767d9f"/>
    <path id="Path_6" data-name="Path 6" d="M760.443,452.9q3.663,15.984,6.217,32.206c.512,3.214.968,6.6-.2,9.641-.975,2.533-2.961,4.512-4.519,6.729s-2.737,5.059-1.789,7.6,3.712,3.929,6.35,4.645c7.55,2.035,15.6.554,23.113-1.649a37.391,37.391,0,0,0,9.69-4.014,36.255,36.255,0,0,0,8.2-7.718c10.953-13.283,18.124-29.224,24.874-45.068a27.449,27.449,0,0,1-23.232-9.36c-2.765-3.249-4.792-7.774-3.235-11.746-4.568,2.505-9.992,2.673-14.91,4.385a52.978,52.978,0,0,0-8.771,4.315q-5.038,2.912-10.02,5.936C768.414,451.094,764.857,453.129,760.443,452.9Z" transform="translate(-246.326 -228.689)" fill="#ffdead"/>
    <g id="Group_2" data-name="Group 2" transform="translate(-0.001 32.592)">
      <path id="Intersection_1" data-name="Intersection 1" d="M791.23,221.923v-17.9h4.616a126.148,126.148,0,0,1,4.72,17.9Zm-24.467,0v-17.9h17.9v17.9Zm-24.46,0v-17.9h17.9v17.9Zm-24.467,0v-17.9h17.9v17.9Zm-24.468,0v-17.9h17.9v17.9Zm-24.46,0v-17.9h17.9v17.9Zm-24.466,0v-17.9h17.9v17.9Zm-24.468,0v-17.9h17.9v17.9Zm-24.46,0v-17.9h17.9v17.9Zm-24.467,0v-17.9h17.9v17.9Zm-24.46,0v-17.9h17.9v17.9Zm-24.468,0v-17.9h17.9v17.9Zm-24.467,0v-17.9h17.9v17.9Zm-24.46,0v-17.9h17.9v17.9Zm-24.467,0v-17.9h17.9v17.9Zm-24.671,0v-17.9h17.9v17.9Zm-24.46,0v-17.9h17.9v17.9Zm-24.467,0v-17.9h17.9v17.9Zm-24.46,0v-17.9h17.9v17.9Zm-24.467,0v-17.9h17.9v17.9Zm-24.467,0v-17.9h17.9v17.9Zm-24.46,0v-17.9h17.9v17.9Zm-24.467,0v-17.9h17.9v17.9Zm-24.46,0v-17.9h17.9v17.9Zm-24.467,0v-17.9h17.9v17.9Zm-24.467,0v-17.9h17.9v17.9Zm-24.46,0v-17.9h17.9v17.9Zm-24.467,0v-17.9h17.9v17.9Zm-24.719,0v-17.9h17.9v17.9Zm-24.72,0v-17.9h17.9v17.9Zm-24.72,0v-17.9h17.9v17.9Zm-24.719,0v-17.9h17.9v17.9Zm-24.72,0v-17.9h17.9v17.9Zm-6.828,0Q0,219.832,0,217.733q0-2.121.069-4.225v8.416Zm791.17-22.66v-6.781q1.533,3.346,2.871,6.781Zm-24.467,0v-17.9h17.9v17.9Zm-24.46,0v-17.9h17.9v17.9Zm-24.467,0v-17.9h17.9v17.9Zm-24.468,0v-17.9h17.9v17.9Zm-24.46,0v-17.9h17.9v17.9Zm-24.466,0v-17.9h17.9v17.9Zm-24.468,0v-17.9h17.9v17.9Zm-24.46,0v-17.9h17.9v17.9Zm-24.467,0v-17.9h17.9v17.9Zm-24.46,0v-17.9h17.9v17.9Zm-24.468,0v-17.9h17.9v17.9Zm-24.467,0v-17.9h17.9v17.9Zm-24.46,0v-17.9h17.9v17.9Zm-24.467,0v-17.9h17.9v17.9Zm-24.671,0v-17.9h17.9v17.9Zm-24.46,0v-17.9h17.9v17.9Zm-73.394,0v-17.9h17.9v17.9Zm-48.927,0v-17.9h17.9v17.9Zm-97.862,0v-17.9h17.9v17.9Zm-24.46,0v-17.9h17.9v17.9Zm-24.467,0v-17.9h17.9v17.9Zm-24.719,0v-17.9h17.9v17.9Zm-24.72,0v-17.9h17.9v17.9Zm-24.72,0v-17.9h17.9v17.9Zm-24.719,0v-17.9h17.9v17.9Zm-24.72,0v-17.9h17.9v17.9Zm759.874-22.677v-17.9h1.77a126.223,126.223,0,0,1,13.985,17.9Zm-24.46,0v-17.9h17.9v17.9Zm-24.467,0v-17.9h17.9v17.9Zm-24.468,0v-17.9h17.9v17.9Zm-24.46,0v-17.9h17.9v17.9Zm-24.466,0v-17.9h17.9v17.9Zm-24.468,0v-17.9h17.9v17.9Zm-24.46,0v-17.9h17.9v17.9Zm-24.467,0v-17.9h17.9v17.9Zm-24.46,0v-17.9h17.9v17.9Zm-24.468,0v-17.9h17.9v17.9Zm-24.467,0v-17.9h17.9v17.9Zm-24.46,0v-17.9h17.9v17.9Zm-24.467,0v-17.9h17.9v17.9Zm-24.671,0v-17.9h17.9v17.9Zm-24.46,0v-17.9h17.9v17.9Zm-73.394,0v-17.9h17.9v17.9Zm-48.927,0v-17.9h17.9v17.9Zm-97.862,0v-17.9h17.9v17.9Zm-24.46,0v-17.9h17.9v17.9Zm-24.467,0v-17.9h17.9v17.9Zm-24.719,0v-17.9h17.9v17.9Zm-24.72,0v-17.9h17.9v17.9Zm-24.72,0v-17.9h17.9v17.9Zm-24.719,0v-17.9h17.9v17.9Zm-24.72,0v-.323a126.278,126.278,0,0,1,7.575-17.576H24.789v17.9ZM742.3,153.915v-17.9h7.562q-.173,3-.486,5.985a126.44,126.44,0,0,1,10.823,8.586v3.328Zm-24.467,0v-17.9h17.9v17.9Zm-24.468,0v-17.9h17.9v17.9Zm-24.46,0v-17.9h17.9v17.9Zm-24.466,0v-17.9h17.9v17.9Zm-24.468,0v-17.9h17.9v17.9Zm-24.46,0v-17.9h17.9v17.9Zm-24.467,0v-17.9h17.9v17.9Zm-24.46,0v-17.9h17.9v17.9Zm-24.468,0v-17.9h17.9v17.9Zm-24.467,0v-17.9h17.9v17.9Zm-24.46,0v-17.9h17.9v17.9Zm-24.467,0v-17.9h17.9v17.9Zm-24.671,0v-17.9h17.9v17.9Zm-24.46,0v-17.9h17.9v17.9Zm-24.467,0v-17.9h17.9v17.9Zm-24.46,0v-17.9h17.9v17.9Zm-24.467,0v-17.9h17.9v17.9Zm-24.467,0v-17.9h17.9v17.9Zm-24.46,0v-17.9h17.9v17.9Zm-24.467,0v-17.9h17.9v17.9Zm-24.46,0v-17.9h17.9v17.9Zm-24.467,0v-17.9h17.9v17.9Zm-24.467,0v-17.9h17.9v17.9Zm-24.46,0v-17.9h17.9v17.9Zm-24.467,0v-17.9h17.9v17.9Zm-24.719,0v-17.9h17.9v17.9Zm-24.72,0v-17.9h17.9v17.9Zm-24.72,0v-17.9h17.9v17.9Zm-24.719,0v-17.9h17.9v17.9Zm-14.51,0a126.315,126.315,0,0,1,7.691-11.7v11.7Zm725.2-22.678v-17.9h6.849a128.942,128.942,0,0,1,.93,15.487q0,1.207-.028,2.413Zm-24.467,0v-17.9h17.9v17.9Zm-24.468,0v-17.9h17.9v17.9Zm-24.46,0v-17.9h17.9v17.9Zm-24.466,0v-17.9h17.9v17.9Zm-24.468,0v-17.9h17.9v17.9Zm-24.46,0v-17.9h17.9v17.9Zm-24.467,0v-17.9h17.9v17.9Zm-24.46,0v-17.9h17.9v17.9Zm-24.468,0v-17.9h17.9v17.9Zm-24.467,0v-17.9h17.9v17.9Zm-24.46,0v-17.9h17.9v17.9Zm-24.467,0v-17.9h17.9v17.9Zm-24.671,0v-17.9h17.9v17.9Zm-24.46,0v-17.9h17.9v17.9Zm-220.183,0v-17.9h17.9v17.9Zm-24.46,0v-17.9h17.9v17.9Zm-24.467,0v-17.9h17.9v17.9Zm-24.719,0v-17.9h17.9v17.9Zm-24.72,0v-17.9h17.9v17.9Zm-24.72,0v-17.9h17.9v17.9Zm-22.416,0a125.589,125.589,0,0,1,15.6-14.152v14.152ZM742.3,108.566v-17.9h1.976a126.547,126.547,0,0,1,4.2,17.9Zm-24.467,0v-17.9h17.9v17.9Zm-24.468,0v-17.9h17.9v17.9Zm-24.46,0v-17.9h17.9v17.9Zm-24.466,0v-17.9h17.9v17.9Zm-24.468,0v-17.9h17.9v17.9Zm-24.46,0v-17.9h17.9v17.9Zm-24.467,0v-17.9h17.9v17.9Zm-24.46,0v-17.9h17.9v17.9Zm-24.468,0v-17.9h17.9v17.9Zm-24.467,0v-17.9h17.9v17.9Zm-24.46,0v-17.9h17.9v17.9Zm-24.467,0v-17.9h17.9v17.9Zm-24.671,0v-17.9h17.9v17.9Zm-24.46,0v-17.9h17.9v17.9Zm-220.183,0v-17.9h17.9v17.9Zm-24.46,0v-17.9h17.9v17.9Zm-24.467,0V91.956q.469.025.937.052l.786-1.333,0-.007h16.172v17.9Zm-24.719,0V93.154q5.3-.8,10.661-1.14,3.263-.2,6.561-.231h.677v16.783Zm-24.72,0V99.583q5.37-2.017,10.914-3.527,3.248-.883,6.568-1.585l.418-.088v14.184Zm-18.852,0a123.093,123.093,0,0,1,11.866-6.111l.166-.074v6.185ZM742.3,85.878V84.855c.126.342.248.68.371,1.023Zm-24.467,0v-17.9h16.816c.365.67.729,1.353,1.083,2.03v15.87Zm-24.468,0v-17.9h17.9v17.9Zm-24.46,0v-17.9h17.9v17.9Zm-24.466,0v-17.9h17.9v17.9Zm-24.468,0v-17.9h17.9v17.9Zm-24.46,0v-17.9h17.9v17.9Zm-24.467,0v-17.9h17.9v17.9Zm-24.46,0v-17.9h17.9v17.9Zm-24.468,0v-17.9h17.9v17.9Zm-24.467,0v-17.9h17.9v17.9Zm-24.46,0v-17.9h17.9v17.9Zm-24.467,0v-17.9h17.9v17.9Zm-24.671,0v-17.9h17.9v17.9Zm-24.46,0v-17.9h17.9v17.9Zm-24.467,0v-17.9h17.9v17.9Zm-24.46,0v-17.9h17.9v17.9Zm-24.467,0v-17.9h17.9v17.9Zm-24.467,0v-17.9h17.9v17.9Zm-24.46,0v-17.9h17.9v17.9Zm-24.467,0v-17.9h17.9v17.9Zm-24.46,0v-17.9h17.9v17.9Zm-24.467,0v-17.9h17.9v17.9Zm-24.467,0v-17.9h17.9v17.9Zm-24.46,0v-17.9h17.9v17.9Zm-19.772,0q2.731-4.3,5.728-8.472,3.144-4.413,6.56-8.687l.583-.7.032-.04h.3v17.9ZM717.836,63.26V45.36H718.9a126.276,126.276,0,0,1,13.049,17.9Zm-24.468,0V45.36h17.9v17.9Zm-24.46,0V45.36h17.9v17.9Zm-24.466,0V45.36h17.9v17.9Zm-24.468,0V45.36h17.9v17.9Zm-24.46,0V45.36h17.9v17.9Zm-24.467,0V45.36h17.9v17.9Zm-24.46,0V45.36h17.9v17.9Zm-24.468,0V45.36h17.9v17.9Zm-24.467,0V45.36h17.9v17.9Zm-24.46,0V45.36h17.9v17.9Zm-24.467,0V45.36h17.9v17.9Zm-24.671,0V45.36h17.9v17.9Zm-24.46,0V45.36h17.9v17.9Zm-73.394,0V45.36h17.9v17.9Zm-146.788,0V45.36h17.9v17.9Zm-24.46,0V59.883q4.986-5.589,10.389-10.915,1.858-1.821,3.765-3.608h3.747v17.9ZM693.369,40.589V23.069a125.126,125.126,0,0,1,17.9,14.289v3.23Zm-24.46,0v-17.9h17.9v17.9Zm-24.466,0v-17.9h17.9v17.9Zm-24.468,0v-17.9h17.9v17.9Zm-24.46,0v-17.9h17.9v17.9Zm-24.467,0v-17.9h17.9v17.9Zm-24.46,0v-17.9h17.9v17.9Zm-24.468,0v-17.9h17.9v17.9Zm-24.467,0v-17.9h17.9v17.9Zm-24.46,0v-17.9h17.9v17.9Zm-24.467,0v-17.9h17.9v17.9Zm-24.671,0v-17.9h17.9v17.9Zm-24.46,0v-17.9h17.9v17.9Zm-73.394,0v-17.9h17.9v17.9Zm-146.788,0V36.244q8.478-7.08,17.776-13.556h.123v17.9Zm489.5-22.69V10.632a122.656,122.656,0,0,1,15.86,7.267Zm-24.466,0V4.265a121.953,121.953,0,0,1,17.9,4.118V17.9Zm-24.468,0V3.006q2.95-.14,5.912-.138,6.065,0,11.988.579V17.9Zm-24.46,0V6.674a122.216,122.216,0,0,1,17.9-3.179V17.9Zm-24.467,0V15.807a122.2,122.2,0,0,1,17.9-7.257V17.9Zm-24.46,0V7.283q9.16,5.036,17.744,10.616Zm-24.468,0V0h10.322q3.837,1.847,7.578,3.781V17.9Zm-24.467,0V0h17.9V17.9Zm-24.46,0V0h17.9V17.9Zm-24.467,0V0h17.9V17.9Zm-24.671,0V0h17.9V17.9Zm-24.46,0V0h17.9V17.9Zm-24.467,0V0h17.9V17.9Zm-24.46,0V0h17.9V17.9Zm-24.467,0V0h17.9V17.9Zm-24.467,0V0h17.9V17.9Zm-24.46,0V0h17.9V17.9Zm-24.467,0V0h17.9V17.9Zm-24.46,0V3.921c2.588-1.341,5.2-2.645,7.847-3.921h10.053V17.9Zm-24.041,0q8.447-5.491,17.473-10.467V17.9Z" transform="translate(0 0)" fill="#f9f9f9"/>
      <g id="Group_3" data-name="Group 3" transform="translate(203.88 22.689)">
        <rect id="Rectangle_220" data-name="Rectangle 220" width="17.899" height="17.899" transform="translate(0 67.978)" fill="#fecd0f" opacity="0.91"/>
        <rect id="Rectangle_344" data-name="Rectangle 344" width="17.899" height="17.899" transform="translate(0)" fill="#05bfce" opacity="0.91"/>
        <rect id="Rectangle_221" data-name="Rectangle 221" width="17.899" height="17.899" transform="translate(24.467 67.978)" fill="#fecd0f" opacity="0.91"/>
        <rect id="Rectangle_341" data-name="Rectangle 341" width="17.899" height="17.899" transform="translate(24.467)" fill="#05bfce" opacity="0.91"/>
        <rect id="Rectangle_222" data-name="Rectangle 222" width="17.899" height="17.899" transform="translate(48.927 67.978)" fill="#fecd0f" opacity="0.91"/>
        <rect id="Rectangle_338" data-name="Rectangle 338" width="17.899" height="17.899" transform="translate(48.927)" fill="#05bfce" opacity="0.91"/>
        <rect id="Rectangle_223" data-name="Rectangle 223" width="17.899" height="17.899" transform="translate(73.394 67.978)" fill="#fecd0f" opacity="0.91"/>
        <rect id="Rectangle_335" data-name="Rectangle 335" width="17.899" height="17.899" transform="translate(73.394)" fill="#05bfce" opacity="0.91"/>
        <rect id="Rectangle_224" data-name="Rectangle 224" width="17.899" height="17.899" transform="translate(97.854 67.978)" fill="#fecd0f" opacity="0.91"/>
        <rect id="Rectangle_332" data-name="Rectangle 332" width="17.899" height="17.899" transform="translate(97.854)" fill="#05bfce" opacity="0.91"/>
        <rect id="Rectangle_225" data-name="Rectangle 225" width="17.899" height="17.899" transform="translate(122.321 67.978)" fill="#fecd0f" opacity="0.91"/>
        <rect id="Rectangle_226" data-name="Rectangle 226" width="17.899" height="17.899" transform="translate(146.788 67.978)" fill="#fecd0f" opacity="0.91"/>
        <rect id="Rectangle_301" data-name="Rectangle 301" width="17.899" height="17.899" transform="translate(146.788)" fill="#1058fc" opacity="0.91"/>
        <rect id="Rectangle_227" data-name="Rectangle 227" width="17.899" height="17.899" transform="translate(171.249 67.978)" fill="#fecd0f" opacity="0.91"/>
        <rect id="Rectangle_299" data-name="Rectangle 299" width="17.899" height="17.899" transform="translate(171.249)" fill="#1058fc" opacity="0.91"/>
        <rect id="Rectangle_211" data-name="Rectangle 211" width="17.899" height="17.899" transform="translate(0 90.649)" fill="#fecd0f" opacity="0.91"/>
        <rect id="Rectangle_345" data-name="Rectangle 345" width="17.899" height="17.899" transform="translate(0 22.671)" fill="#05bfce" opacity="0.91"/>
        <rect id="Rectangle_207" data-name="Rectangle 207" width="17.899" height="17.899" transform="translate(24.467 90.649)" fill="#fecd0f" opacity="0.91"/>
        <rect id="Rectangle_342" data-name="Rectangle 342" width="17.899" height="17.899" transform="translate(24.467 22.671)" fill="#05bfce" opacity="0.91"/>
        <rect id="Rectangle_199" data-name="Rectangle 199" width="17.899" height="17.899" transform="translate(48.927 90.649)" fill="#fecd0f" opacity="0.91"/>
        <rect id="Rectangle_339" data-name="Rectangle 339" width="17.899" height="17.899" transform="translate(48.927 22.671)" fill="#05bfce" opacity="0.91"/>
        <rect id="Rectangle_200" data-name="Rectangle 200" width="17.899" height="17.899" transform="translate(73.394 90.649)" fill="#fecd0f" opacity="0.91"/>
        <rect id="Rectangle_336" data-name="Rectangle 336" width="17.899" height="17.899" transform="translate(73.394 22.671)" fill="#05bfce" opacity="0.91"/>
        <rect id="Rectangle_201" data-name="Rectangle 201" width="17.899" height="17.899" transform="translate(97.854 90.649)" fill="#fecd0f" opacity="0.91"/>
        <rect id="Rectangle_333" data-name="Rectangle 333" width="17.899" height="17.899" transform="translate(97.854 22.671)" fill="#05bfce" opacity="0.91"/>
        <rect id="Rectangle_202" data-name="Rectangle 202" width="17.899" height="17.899" transform="translate(122.321 90.649)" fill="#fecd0f" opacity="0.91"/>
        <rect id="Rectangle_203" data-name="Rectangle 203" width="17.899" height="17.899" transform="translate(146.788 90.649)" fill="#fecd0f" opacity="0.91"/>
        <rect id="Rectangle_302" data-name="Rectangle 302" width="17.899" height="17.899" transform="translate(146.788 22.671)" fill="#1058fc" opacity="0.91"/>
        <rect id="Rectangle_204" data-name="Rectangle 204" width="17.899" height="17.899" transform="translate(171.249 90.649)" fill="#fecd0f" opacity="0.91"/>
        <rect id="Rectangle_300" data-name="Rectangle 300" width="17.899" height="17.899" transform="translate(171.249 22.671)" fill="#1058fc" opacity="0.91"/>
        <rect id="Rectangle_213" data-name="Rectangle 213" width="17.899" height="17.899" transform="translate(0 135.998)" fill="#ee1800" opacity="0.91"/>
        <rect id="Rectangle_209" data-name="Rectangle 209" width="17.899" height="17.899" transform="translate(24.467 135.998)" fill="#ee1800" opacity="0.91"/>
        <rect id="Rectangle_197" data-name="Rectangle 197" width="17.899" height="17.899" transform="translate(48.927 135.998)" fill="#ee1800" opacity="0.91"/>
        <rect id="Rectangle_185" data-name="Rectangle 185" width="17.899" height="17.899" transform="translate(97.854 135.998)" fill="#95bf15" opacity="0.91"/>
        <rect id="Rectangle_178" data-name="Rectangle 178" width="17.899" height="17.899" transform="translate(146.788 135.998)" fill="#215b67" opacity="0.91"/>
        <rect id="Rectangle_179" data-name="Rectangle 179" width="17.899" height="17.899" transform="translate(171.249 135.998)" fill="#215b67" opacity="0.91"/>
        <rect id="Rectangle_214" data-name="Rectangle 214" width="17.899" height="17.899" transform="translate(0 158.676)" fill="#ee1800" opacity="0.91"/>
        <rect id="Rectangle_210" data-name="Rectangle 210" width="17.899" height="17.899" transform="translate(24.467 158.676)" fill="#ee1800" opacity="0.91"/>
        <rect id="Rectangle_198" data-name="Rectangle 198" width="17.899" height="17.899" transform="translate(48.927 158.676)" fill="#ee1800" opacity="0.91"/>
        <rect id="Rectangle_186" data-name="Rectangle 186" width="17.899" height="17.899" transform="translate(97.854 158.676)" fill="#95bf15" opacity="0.91"/>
        <rect id="Rectangle_182" data-name="Rectangle 182" width="17.899" height="17.899" transform="translate(146.788 158.676)" fill="#215b67" opacity="0.91"/>
        <rect id="Rectangle_177" data-name="Rectangle 177" width="17.899" height="17.899" transform="translate(171.249 158.676)" fill="#215b67" opacity="0.91"/>
      </g>
    </g>
    <path id="Path_7" data-name="Path 7" d="M788.8,477.448c-4.287,8.343-9.865,16.363-17.829,21.331s-18.685,6.315-26.663,1.4c-3.929-2.4-6.9-6.048-10.336-9.122s-7.718-5.7-12.328-5.3c-5.08.442-9.058,4.406-12.462,8.2-5.164,5.768-10.153,11.781-13.809,18.608-7.017,13.121-8.68,28.46-8.371,43.335s2.463,29.673,2.512,44.549c.07,18.3-3.031,36.452-6.168,54.477,28.839-3.55,57.712,4.21,86.614,7.15,18.5,1.9,37.132,1.859,55.726,1.81,3.27,0,6.75-.084,9.473-1.894a12.772,12.772,0,0,0,3.922-4.659c2.568-4.736,3.6-10.139,4.315-15.479,1.818-13.486,1.874-27.14,1.923-40.753.126-32.978.245-66.076-3.943-98.794-1.032-8.048-2.351-16.138-5.438-23.667s-8.125-14.454-15.17-18.489c-4.526-2.6-15.016-7.115-20.348-4.5C794.438,458.574,791.673,471.863,788.8,477.448Z" transform="translate(-223.513 -234.864)" fill="#1058fc"/>
    <path id="Path_8" data-name="Path 8" d="M834.078,568.12c-1.088-20.348-5.515-42.065,3.908-60.126,2.316-4.435-5.992-9.971-3.424-14.265a64.611,64.611,0,0,0,7.059-16.791,12.667,12.667,0,0,0,.456-6.21c-.933-3.712-4.6-5.922-7.718-8.181-3.438-2.5-5.206-10.111-6.315-14.23s8.82.842,12.812-.624c5.543-2.028,12.588-.751,18.117,1.305,3.087,1.137,6.441,1.235,9.732,1.319a128.207,128.207,0,0,0,19.148-.456,47.631,47.631,0,0,1,8.567-.737c7.3.414,13.654,5.41,17.977,11.318s7.073,12.791,10.616,19.191c2.954,5.333,6.476,10.371,9,15.921a98.022,98.022,0,0,1,5.038,15.437l3.6,13.465a17.957,17.957,0,0,1,.884,5.971,16.952,16.952,0,0,1-2.105,6.077,115.168,115.168,0,0,1-13.1,19.99c-7.571,9.283-16.763,17.654-21.26,28.768a72.682,72.682,0,0,0-3.621,13.521A496.754,496.754,0,0,0,895.8,654.32a122.226,122.226,0,0,0-25.625-8.567,124.583,124.583,0,0,0-13.332-2.105c-3.922-.407-8.981.365-12.714-.7-6.245-1.775-6.932-12.335-7.88-17.864a163.136,163.136,0,0,1-1.873-26.663C834.3,588.3,834.618,578.2,834.078,568.12Z" transform="translate(-266.655 -232.41)" fill="#05bfce"/>
    <path id="Path_9" data-name="Path 9" d="M615.471,561.512c2.954,16.84,6.21,33.729,12.63,49.552-.161.154-.323.295-.484.435-.568.484-1.158.94-1.775,1.4a23.642,23.642,0,0,0-4.21,3.186,5.618,5.618,0,0,0-1.052,1.719,3.845,3.845,0,0,0,0,3.136c-3.347,1.481-7.234,1.025-10.988.884-3.235-.119-6.371,0-8.967,1.775-3.607,2.484-4.694,7.255-5.277,11.591q-.323,2.372-.554,4.75-.225,2.211-.365,4.435a132.3,132.3,0,0,0-.133,14.735q.056,1.347.147,2.694c-11.465-.274-21.913-6.252-31.8-12.062-2.259-1.326-4.589-2.723-6.055-4.912a11.087,11.087,0,0,1-1.621-7.22,7.994,7.994,0,0,1,.112-1.067,29.176,29.176,0,0,1,1.607-6.09,75.224,75.224,0,0,1,13.465-22.909c2.512-2.933,5.34-5.8,6.512-9.486.512-1.607.7-3.312,1.221-4.912,2.33-6.932,10.736-10.209,13.612-16.938a51.362,51.362,0,0,1,1.894-4.912,12.372,12.372,0,0,1,2.982-3.333c.512-.428,1.045-.842,1.572-1.256q7.4-5.8,14.251-12.244,1.277-1.2,2.526-2.428A41.726,41.726,0,0,0,615.471,561.512Z" transform="translate(-185.189 -263.854)" fill="#05bfce"/>
    <path id="Path_10" data-name="Path 10" d="M711.633,488.059c-1.01,1.066-2.1,2.07-3.179,3.066l-.288.26-1.137,1.053a27.369,27.369,0,0,0-5.3,6.168l-.119.2c-3.578,6.406-2.252,14.293-1.256,21.569a183.528,183.528,0,0,1,1.663,27.365c-.182,12.63-1.67,25.176-1.7,37.792q0,4.294.189,8.581c.2,4.652.554,9.3.975,13.942.456,5.094,1,10.181,1.516,15.268.407,3.936.793,7.866,1.116,11.8.161,2.035.316,4.063.442,6.1.147,2.386.267,4.778.337,7.164h0c.049,1.516.077,3.024.077,4.54v2.575q0,2.463-.133,4.912-.14,3.15-.428,6.315c-.217,2.294-.6,4.8-2.217,6.413-.1.1-.2.189-.309.281l-2.273-.281a233.452,233.452,0,0,0-47.222-.842c.344-2.372.66-4.736.968-7.115.14-1.123.281-2.252.414-3.382q.232-1.937.442-3.873.242-2.1.449-4.21.547-5.424.961-10.855.61-7.922.926-15.872.154-3.8.239-7.6.119-4.715.112-9.437,0-4.589-.077-9.192c0-1.01-.042-2.021-.126-3.024a19.162,19.162,0,0,0-.372-2.687,35,35,0,0,0-2.1-5.95c-.154-.365-.3-.7-.449-1.088-.084-.189-.161-.386-.239-.575,4.042-3.6,6.918-8.42,9.683-13.163,4.484-7.641,9.073-15.619,9.823-24.446s-3.635-18.741-12.069-21.436a58.6,58.6,0,0,0-7.087-1.312c-2.231-.393-6.883-1.284-9.466-2.884q-2.1,2.161-4.21,4.245a15.542,15.542,0,0,1,1.523-6.112l1,.049a1.9,1.9,0,0,1-.112-.7,3.687,3.687,0,0,1,1.628-2.54c3.3-2.807,8.5-3.431,10.588-7.227.87-1.579,1.018-3.459,1.719-5.115,2.014-4.722,7.8-6.462,11.276-10.237s4.35-9.122,7.164-13.332a20.082,20.082,0,0,1,8.42-7.017c.281-.133.568-.267.856-.386,5.824-2.491,12.742-3.059,18.776-3.045,2.344,0,8.42.07,11.4,1.256a3.732,3.732,0,0,1,1.3.793C718.909,478.271,713.976,485.561,711.633,488.059Z" transform="translate(-210.643 -240.205)" fill="#05bfce"/>
    <path id="Path_11" data-name="Path 11" d="M637.135,541.919a42.717,42.717,0,0,1,32.8,3.417,31.02,31.02,0,0,1,12.363,11.774c4.175,7.578,3.992,16.714,3.7,25.365-.147,4.329-.337,8.813-2.245,12.7-2.21,4.5-6.378,7.585-10.63,10.111a29.64,29.64,0,0,1-8.644,3.74c-4.715,1.025-9.613.154-14.363-.7-5.164-.954-10.708-2.1-14.293-5.95-2.1-2.231-3.256-5.129-4.392-7.964q-2.449-6.139-4.912-12.265c-2.842-7.094-3.8-12.995-.049-19.906,1.705-3.151,3.789-6.1,5.473-9.269C632.778,551.356,635.795,542.333,637.135,541.919Z" transform="translate(-205.807 -260.293)" fill="#05bfce"/>
    <path id="Path_12" data-name="Path 12" d="M786.751,697.976v20.98a117.387,117.387,0,0,1-45.419,8.981H552.1c-.1.1-.2.189-.309.281l-2.273-.281H212.908c-28.242,0-54.414-7.62-75.878-20.6V675.305L298.918,656.62h.126L393.32,664.6l24.4,2.105,12.672,1.074,26.228,2.224,13.493,1.144,19.647,1.67,2.765.232,14.16,1.2,19.212,1.579,27.014,2.287,45.033,3.824,31.68,2.687,52.021,4.413,9.893.835,1.067.091.926.077,13.065,1.109,14.342,1.221,1.663.14Z" transform="translate(-60.528 -295.054)" fill="#215b67"/>
    <path id="Path_13" data-name="Path 13" d="M674.4,558.4,471.516,523.77l-7.866,39.777,93,11.136,28.635,3.586,78.769-15.514Z" transform="translate(-138.323 -156.247)" fill="#fecd0f"/>
    <path id="Path_14" data-name="Path 14" d="M642.33,731.79l101.643-19.106a3.508,3.508,0,0,1,4.168,3.459h0a3.508,3.508,0,0,1-2.87,3.459l-99.265,18.587Z" transform="translate(-211.276 -311.761)" fill="#fecd0f"/>
    <path id="Path_15" data-name="Path 15" d="M671.536,648.533a26.218,26.218,0,0,0,9.22-2.2c3.508-1.747,6.238-4.757,9.487-6.975,7.143-4.912,16.7-5.571,24.888-2.75s15.023,8.862,19.808,16.075c3.179,4.806,5.564,10.939,3.319,16.243a21.4,21.4,0,0,1-2.891,4.519l-5.852,7.648a20.353,20.353,0,0,1-3.971,4.273,16.876,16.876,0,0,1-7.592,2.638c-7.122,1.038-14.37.449-21.548.926-12.328.821-24.369,4.792-36.725,4.659-7.1-.077-14.111-1.509-21.05-2.94l-30.712-6.315c-5.347-1.095-11.388-2.695-13.907-7.543a17.487,17.487,0,0,1-1.473-7.164c-.365-6.764,0-14.286,4.687-19.162,4.406-4.575,11.374-6.02,16.637-9.4,6.441-4.147,8.567-2.807,15.359.309A84.2,84.2,0,0,0,671.536,648.533Z" transform="translate(-196.389 -288.587)" fill="#eec78c"/>
    <path id="Path_17" data-name="Path 17" d="M803.691,639.073c-8.616,3.333-17.282,6.68-26.305,8.666-15.128,3.333-30.957,2.807-45.966,6.617-7.929,2.021-15.808,5.276-23.955,4.617-3.642-.295-7.157-1.4-10.7-2.245-19.906-4.912-42.535-3.319-58.7,9.311a73.055,73.055,0,0,0-14.16,15.437,10.314,10.314,0,0,0,4.147,15.352,60.782,60.782,0,0,0,19.913,5.312c9.213.814,18.468-.491,27.632-1.8,13.6-1.93,27.2-3.866,40.767-6.034,4.87-.779,9.739-1.586,14.637-2.2,35.245-4.456,71.128.961,106.464-2.757a32.523,32.523,0,0,0,10.455-2.393c8.224-3.859,12.293-14.033,10.6-22.973s-8.251-16.37-16.138-20.931c-6.61-3.838-13.739-5.389-21.1-7.017C814.44,634.442,810.272,636.547,803.691,639.073Z" transform="translate(-205.212 -288.747)" fill="#ffdead"/>
    <path id="Path_18" data-name="Path 18" d="M949.589,551.717c3.887,5.094,4.715,11.928,4.294,18.306s-1.937,12.686-2.161,19.092c-.309,8.785,1.81,17.542,1.452,26.3a75.654,75.654,0,0,1-3.424,18.012c-2.028,6.94-4.961,14.4-11.367,17.731-8.5,4.428-26.34,1.937-35.287,5.4.814-5.073,8.617-12.42,9.43-17.493.561-3.508,1.13-7.115.526-10.63-.772-4.484-3.4-8.462-6.525-11.774a34.432,34.432,0,0,0-18.573-10.525c-7.122-1.291-24.558-.232-30.256,4.266-.7-4.645,12.349-9.122,16.938-10.125,2.287-.512,4.912-.224,6.743-1.677,3.508-2.75.961-8.231,1.13-12.63.133-3.508,2.182-6.722,2.6-10.23.7-5.613-2.961-11.332-1.523-16.84.533-2.035,1.719-3.824,2.54-5.761,2.5-5.929,1.4-12.693.07-18.994-.828-3.957-1.635-8.42.568-11.795,2.042-3.15,7.838,8.069,11.549,7.55,12.258-1.719,23.352-10.806,33.252-3.368,5.045,3.789,5.7,7.718,7.718,13.128C941.239,544.813,946.312,547.451,949.589,551.717Z" transform="translate(-275.519 -254.83)" opacity="0.1"/>
    <path id="Path_19" data-name="Path 19" d="M952.589,549.7c3.887,5.094,4.715,11.928,4.294,18.306s-1.937,12.686-2.161,19.092c-.309,8.785,1.81,17.542,1.453,26.3a75.65,75.65,0,0,1-3.424,18.012c-2.028,6.94-4.961,14.4-11.367,17.731-8.5,4.427-26.341,1.937-35.287,5.4.814-5.073,8.616-12.419,9.431-17.492.561-3.508,1.13-7.115.526-10.63-.772-4.484-3.4-8.462-6.526-11.774a34.432,34.432,0,0,0-18.573-10.525c-7.122-1.291-24.558-.232-30.256,4.266-.7-4.645,12.349-9.122,16.938-10.125,2.287-.512,4.912-.225,6.743-1.677,3.508-2.751.961-8.231,1.13-12.63.133-3.508,2.182-6.722,2.6-10.23.7-5.613-2.961-11.332-1.522-16.84.533-2.035,1.719-3.824,2.54-5.761,2.5-5.929,1.4-12.693.07-18.994-.828-3.957-1.635-8.42.568-11.795,2.042-3.15,6.034-4.343,9.746-4.87a48.008,48.008,0,0,1,35.083,9.051c5.045,3.789,5.7,7.718,7.718,13.128C944.239,542.8,949.312,545.434,952.589,549.7Z" transform="translate(-276.414 -252.813)" fill="#05bfce"/>
    <path id="Path_20" data-name="Path 20" d="M329.869,506.992l38.15,140.993a8.806,8.806,0,0,0,7.655,6.462l171.712,16.5a8.8,8.8,0,0,0,9.388-10.862L515,490.012a8.8,8.8,0,0,0-9.206-6.673L337.679,495.913a8.8,8.8,0,0,0-7.81,11.079Z" transform="translate(-117.966 -243.351)" fill="#fecd0f"/>
    <ellipse id="Ellipse_2" data-name="Ellipse 2" cx="18.875" cy="19.12" rx="18.875" ry="19.12" transform="translate(533.413 252.913)" fill="#fff"/>
    <path id="Path_21" data-name="Path 21" d="M833.262,479.182s3.979,11.83-7.76,16.8l-1.5,2.624,7.353,7.255s9.066-16.538,8.083-22.411C839.437,483.455,838.033,477.491,833.262,479.182Z" transform="translate(-265.474 -242.028)" fill="#fff"/>
    <circle id="Ellipse_3" data-name="Ellipse 3" cx="18.201" cy="18.201" r="18.201" transform="translate(536.255 254.752)" fill="#ee1800"/>
    <path id="Path_22" data-name="Path 22" d="M836.3,473.672l-2.891-4.771-4.21-.6c.9-15.71-3.179-20.391-3.179-20.391l-.947-.091-4.126-.4-7.76-8.055V437.08c10.9,1.3,16.931,6.476,20.187,12.546C839.131,460.277,836.3,473.672,836.3,473.672Z" transform="translate(-262.249 -229.557)" fill="#ee1800"/>
    <path id="Path_23" data-name="Path 23" d="M825.126,445.9V448.8L821,448.4l-7.761-8.055S825.245,443.027,825.126,445.9Z" transform="translate(-262.264 -230.53)" stroke="#4c4981" stroke-miterlimit="10" stroke-width="1" opacity="0.1"/>
    <path id="Path_24" data-name="Path 24" d="M844.9,479.018l-2.891-4.771V455C847.729,465.623,844.9,479.018,844.9,479.018Z" transform="translate(-270.847 -234.904)" fill="#ee1800" stroke="#4c4981" stroke-miterlimit="10" stroke-width="1" opacity="0.1"/>
    <ellipse id="Ellipse_4" data-name="Ellipse 4" cx="10.125" cy="18.468" rx="10.125" ry="18.468" transform="translate(493.589 253.512) rotate(-30)" fill="#fff"/>
    <path id="Path_25" data-name="Path 25" d="M752.6,509.9c5.1,8.834,11.36,14.735,6.518,17.542s-18.945,1.4-24.046-7.438-.47-21.05,4.371-23.857S747.495,501.048,752.6,509.9Z" transform="translate(-238.282 -247.005)" fill="#ee1800"/>
    <path id="Path_26" data-name="Path 26" d="M783.781,405.4c0,28.228-19.317,55.432-47.545,55.432a51.116,51.116,0,1,1,0-102.233C764.464,358.628,783.781,377.166,783.781,405.4Z" transform="translate(-224.042 -206.144)" opacity="0.1"/>
    <circle id="Ellipse_5" data-name="Ellipse 5" cx="51.116" cy="51.116" r="51.116" transform="translate(461.078 151.081)" fill="#ffdead"/>
    <path id="Path_27" data-name="Path 27" d="M722.663,368.9c6.083,2.238,9.683,8.525,15.142,12.027,7.718,4.912,17.766,3.642,26.579,1.214,4.912-1.34,10.048-2.975,14.882-1.487a4.212,4.212,0,0,0,2.266.323c1.052-.3,1.572-1.466,1.915-2.5,5.978-17.822,3.291-38.009-5.732-54.5-2.33-4.252-5.122-8.364-8.967-11.318a37.405,37.405,0,0,0-10.188-5.143,101.741,101.741,0,0,0-20.264-5,12.59,12.59,0,0,0-3.7-.119,15.484,15.484,0,0,0-4.715,2,48.26,48.26,0,0,1-20.952,5.691c-9.823.372-21.05-1.944-28.621,4.357-9.122,7.557-6.848,22.3-12.763,32.557-3.915,6.785-11.465,11.711-12.707,19.436a17.936,17.936,0,0,0,.442,7.066c2.891,11.886,14.4,21.092,26.663,21.31a10.118,10.118,0,0,0,5.445-1.116,12.315,12.315,0,0,0,2.87-2.73C698.294,381.441,707.485,363.31,722.663,368.9Z" transform="translate(-214.958 -189.348)" fill="#215b67"/>
    <path id="Path_28" data-name="Path 28" d="M783.439,396.043c-.344,1.038-.863,2.2-1.916,2.5a4.211,4.211,0,0,1-2.266-.323c-4.834-1.488-10,.147-14.875,1.487-8.82,2.428-18.889,3.726-26.579-1.214-5.466-3.508-9.058-9.823-15.149-12.027-15.177-5.613-24.369,12.546-32.424,22.06a12.314,12.314,0,0,1-2.87,2.729,10.118,10.118,0,0,1-5.445,1.116c-12.223-.218-23.737-9.423-26.663-21.31-.161-.7-.3-1.4-.407-2.1a.338.338,0,0,1-.035.182,17.941,17.941,0,0,0,.442,7.066c2.891,11.886,14.405,21.092,26.663,21.31a10.117,10.117,0,0,0,5.445-1.116,12.319,12.319,0,0,0,2.87-2.729c8.055-9.515,17.247-27.646,32.424-22.06,6.09,2.238,9.683,8.525,15.149,12.027,7.718,4.912,17.759,3.642,26.579,1.214,4.912-1.34,10.041-2.975,14.875-1.487a4.211,4.211,0,0,0,2.266.323c1.053-.3,1.572-1.466,1.916-2.5a63.35,63.35,0,0,0,3.143-22.636,62.3,62.3,0,0,1-3.143,17.492Z" transform="translate(-214.949 -212.096)" opacity="0.1"/>
  </g>
</svg>
