<svg xmlns="http://www.w3.org/2000/svg" width="232.935" height="186.179" viewBox="0 0 232.935 186.179">
  <g id="Group_9" data-name="Group 9" transform="translate(0)">
    <rect id="Rectangle_506" data-name="Rectangle 506" width="21.123" height="6.386" rx="3.193" transform="translate(47.618 31.931)" fill="#ee1800" opacity="0.1"/>
    <rect id="Rectangle_507" data-name="Rectangle 507" width="21.123" height="6.386" rx="3.193" transform="translate(69.724 38.317)" fill="#ee1800" opacity="0.1"/>
    <rect id="Rectangle_508" data-name="Rectangle 508" width="21.123" height="6.386" rx="3.193" transform="translate(91.83 44.703)" fill="#ee1800" opacity="0.1"/>
    <rect id="Rectangle_509" data-name="Rectangle 509" width="21.123" height="6.386" rx="3.193" transform="translate(47.618 22.351)" fill="#ee1800" opacity="0.1"/>
    <rect id="Rectangle_510" data-name="Rectangle 510" width="21.123" height="6.386" rx="3.193" transform="translate(69.724 28.737)" fill="#ee1800" opacity="0.1"/>
    <rect id="Rectangle_511" data-name="Rectangle 511" width="21.123" height="6.386" rx="3.193" transform="translate(91.83 35.124)" fill="#ee1800" opacity="0.1"/>
    <rect id="Rectangle_512" data-name="Rectangle 512" width="21.123" height="6.386" rx="3.193" transform="translate(116.392 31.931)" fill="#ee1800" opacity="0.1"/>
    <rect id="Rectangle_513" data-name="Rectangle 513" width="21.123" height="6.386" rx="3.193" transform="translate(138.497 38.317)" fill="#ee1800" opacity="0.1"/>
    <rect id="Rectangle_514" data-name="Rectangle 514" width="21.123" height="6.386" rx="3.193" transform="translate(160.603 44.703)" fill="#ee1800" opacity="0.1"/>
    <rect id="Rectangle_515" data-name="Rectangle 515" width="21.123" height="6.386" rx="3.193" transform="translate(116.392 22.351)" fill="#ee1800" opacity="0.1"/>
    <rect id="Rectangle_516" data-name="Rectangle 516" width="21.123" height="6.386" rx="3.193" transform="translate(138.497 28.737)" fill="#ee1800" opacity="0.1"/>
    <rect id="Rectangle_517" data-name="Rectangle 517" width="21.123" height="6.386" rx="3.193" transform="translate(160.603 35.124)" fill="#ee1800" opacity="0.1"/>
    <rect id="Rectangle_518" data-name="Rectangle 518" width="21.123" height="6.386" rx="3.193" transform="translate(47.618 9.579)" fill="#ee1800" opacity="0.1"/>
    <rect id="Rectangle_519" data-name="Rectangle 519" width="21.123" height="6.386" rx="3.193" transform="translate(69.724 15.965)" fill="#ee1800" opacity="0.1"/>
    <rect id="Rectangle_520" data-name="Rectangle 520" width="21.123" height="6.386" rx="3.193" transform="translate(91.83 22.351)" fill="#ee1800" opacity="0.1"/>
    <rect id="Rectangle_521" data-name="Rectangle 521" width="21.123" height="6.386" rx="3.193" transform="translate(47.618)" fill="#ee1800" opacity="0.1"/>
    <rect id="Rectangle_522" data-name="Rectangle 522" width="21.123" height="6.386" rx="3.193" transform="translate(69.724 6.386)" fill="#ee1800" opacity="0.1"/>
    <rect id="Rectangle_523" data-name="Rectangle 523" width="21.123" height="6.386" rx="3.193" transform="translate(91.83 12.772)" fill="#ee1800" opacity="0.1"/>
    <rect id="Rectangle_524" data-name="Rectangle 524" width="21.123" height="6.386" rx="3.193" transform="translate(116.392 9.579)" fill="#ee1800" opacity="0.1"/>
    <rect id="Rectangle_525" data-name="Rectangle 525" width="21.123" height="6.386" rx="3.193" transform="translate(138.497 15.965)" fill="#ee1800" opacity="0.1"/>
    <rect id="Rectangle_526" data-name="Rectangle 526" width="21.123" height="6.386" rx="3.193" transform="translate(160.603 22.351)" fill="#ee1800" opacity="0.1"/>
    <rect id="Rectangle_527" data-name="Rectangle 527" width="21.123" height="6.386" rx="3.193" transform="translate(116.392)" fill="#ee1800" opacity="0.1"/>
    <rect id="Rectangle_528" data-name="Rectangle 528" width="21.123" height="6.386" rx="3.193" transform="translate(138.497 6.386)" fill="#ee1800" opacity="0.1"/>
    <rect id="Rectangle_529" data-name="Rectangle 529" width="21.123" height="6.386" rx="3.193" transform="translate(160.603 12.772)" fill="#ee1800" opacity="0.1"/>
    <rect id="Rectangle_530" data-name="Rectangle 530" width="21.123" height="6.386" rx="3.193" transform="translate(47.618 145.652)" fill="#ee1800" opacity="0.1"/>
    <rect id="Rectangle_531" data-name="Rectangle 531" width="21.123" height="6.386" rx="3.193" transform="translate(69.724 152.038)" fill="#ee1800" opacity="0.1"/>
    <rect id="Rectangle_532" data-name="Rectangle 532" width="21.123" height="6.386" rx="3.193" transform="translate(91.83 158.424)" fill="#ee1800" opacity="0.1"/>
    <rect id="Rectangle_533" data-name="Rectangle 533" width="21.123" height="6.386" rx="3.193" transform="translate(47.618 136.073)" fill="#ee1800" opacity="0.1"/>
    <rect id="Rectangle_534" data-name="Rectangle 534" width="21.123" height="6.386" rx="3.193" transform="translate(69.724 142.459)" fill="#ee1800" opacity="0.1"/>
    <rect id="Rectangle_535" data-name="Rectangle 535" width="21.123" height="6.386" rx="3.193" transform="translate(91.83 148.845)" fill="#ee1800" opacity="0.1"/>
    <rect id="Rectangle_536" data-name="Rectangle 536" width="21.123" height="6.386" rx="3.193" transform="translate(116.392 145.652)" fill="#ee1800" opacity="0.1"/>
    <rect id="Rectangle_537" data-name="Rectangle 537" width="21.123" height="6.386" rx="3.193" transform="translate(138.497 152.038)" fill="#ee1800" opacity="0.1"/>
    <rect id="Rectangle_538" data-name="Rectangle 538" width="21.123" height="6.386" rx="3.193" transform="translate(160.603 158.424)" fill="#ee1800" opacity="0.1"/>
    <rect id="Rectangle_539" data-name="Rectangle 539" width="21.123" height="6.386" rx="3.193" transform="translate(116.392 136.073)" fill="#ee1800" opacity="0.1"/>
    <rect id="Rectangle_540" data-name="Rectangle 540" width="21.123" height="6.386" rx="3.193" transform="translate(138.497 142.459)" fill="#ee1800" opacity="0.1"/>
    <rect id="Rectangle_541" data-name="Rectangle 541" width="21.123" height="6.386" rx="3.193" transform="translate(160.603 148.845)" fill="#ee1800" opacity="0.1"/>
    <rect id="Rectangle_542" data-name="Rectangle 542" width="21.123" height="6.386" rx="3.193" transform="translate(47.618 123.301)" fill="#ee1800" opacity="0.1"/>
    <rect id="Rectangle_543" data-name="Rectangle 543" width="21.123" height="6.386" rx="3.193" transform="translate(69.724 129.687)" fill="#ee1800" opacity="0.1"/>
    <rect id="Rectangle_544" data-name="Rectangle 544" width="21.123" height="6.386" rx="3.193" transform="translate(91.83 136.073)" fill="#ee1800" opacity="0.1"/>
    <rect id="Rectangle_545" data-name="Rectangle 545" width="21.123" height="6.386" rx="3.193" transform="translate(47.618 113.722)" fill="#ee1800" opacity="0.1"/>
    <rect id="Rectangle_546" data-name="Rectangle 546" width="21.123" height="6.386" rx="3.193" transform="translate(69.724 120.108)" fill="#ee1800" opacity="0.1"/>
    <rect id="Rectangle_547" data-name="Rectangle 547" width="21.123" height="6.386" rx="3.193" transform="translate(91.83 126.494)" fill="#ee1800" opacity="0.1"/>
    <rect id="Rectangle_548" data-name="Rectangle 548" width="21.123" height="6.386" rx="3.193" transform="translate(116.392 123.301)" fill="#ee1800" opacity="0.1"/>
    <rect id="Rectangle_549" data-name="Rectangle 549" width="21.123" height="6.386" rx="3.193" transform="translate(138.497 129.687)" fill="#ee1800" opacity="0.1"/>
    <rect id="Rectangle_550" data-name="Rectangle 550" width="21.123" height="6.386" rx="3.193" transform="translate(160.603 136.073)" fill="#ee1800" opacity="0.1"/>
    <rect id="Rectangle_551" data-name="Rectangle 551" width="21.123" height="6.386" rx="3.193" transform="translate(116.392 113.722)" fill="#ee1800" opacity="0.1"/>
    <rect id="Rectangle_552" data-name="Rectangle 552" width="21.123" height="6.386" rx="3.193" transform="translate(138.497 120.108)" fill="#ee1800" opacity="0.1"/>
    <rect id="Rectangle_553" data-name="Rectangle 553" width="21.123" height="6.386" rx="3.193" transform="translate(160.603 126.494)" fill="#ee1800" opacity="0.1"/>
    <ellipse id="Ellipse_22" data-name="Ellipse 22" cx="107.704" cy="8.842" rx="107.704" ry="8.842" transform="translate(10.775 168.495)" fill="#ee1800" opacity="0.1"/>
    <path id="Path_154" data-name="Path 154" d="M146.612,248.978c10.156,4.4,15.992,13.509,15.992,13.509s-10.633,1.965-20.792-2.434-15.992-13.509-15.992-13.509S136.453,244.576,146.612,248.978Z" transform="translate(-125.82 -203.096)" fill="#ee1800"/>
    <path id="Path_155" data-name="Path 155" d="M328.483,165.614A21.716,21.716,0,0,1,336.974,158a21.881,21.881,0,0,1-2.886,11.023,21.663,21.663,0,0,1-8.494,7.6A21.676,21.676,0,0,1,328.483,165.614Z" transform="translate(-276.522 -136.631)" fill="#ee1800"/>
    <path id="Path_156" data-name="Path 156" d="M240.5,163.084a30.1,30.1,0,0,0,8.442,13.3,27.326,27.326,0,0,0-8.14-29.057A30.068,30.068,0,0,0,240.5,163.084Z" transform="translate(-211.635 -128.582)" fill="#46455b"/>
    <rect id="Rectangle_554" data-name="Rectangle 554" width="179.056" height="89.651" rx="7.21" transform="translate(29.197 34.141)" fill="#3f3d56"/>
    <path id="Path_157" data-name="Path 157" d="M118.87,482H297.926v3.633a1.771,1.771,0,0,1-1.771,1.771H120.641a1.771,1.771,0,0,1-1.771-1.771Z" transform="translate(-89.673 -363.612)" opacity="0.1"/>
    <rect id="Rectangle_555" data-name="Rectangle 555" width="13.263" height="6.632" rx="2.5" transform="translate(46.636 111.757)" fill="#ee1800"/>
    <rect id="Rectangle_556" data-name="Rectangle 556" width="9.088" height="0.982" rx="0.491" transform="translate(63.583 117.406)" fill="#ee1800"/>
    <path id="Path_158" data-name="Path 158" d="M307.121,268.429c6.482,1.2,13.094,0,19.549-.811l19.618-2.456c.793-.1,1.948-.575,2.414.4a7.479,7.479,0,0,1,.106,2.343c.052,1.719.047,3.439,0,5.158-.088,3.286-.329,6.565-.636,9.837-.6,6.4-1.442,12.772-1.864,19.2-.216,3.272-.324,6.553-.228,9.825.022.781.054,1.562.1,2.341.052.872.442,2.166-.508,2.748a7.028,7.028,0,0,1-2.233.415c-.982.155-1.965.278-2.967.378-6.6.661-13.3.386-19.925.346l-20.018-.1-4.883-.027c-.442,0-2.036.265-2.309-.26a5.2,5.2,0,0,1,.246-1.55q.113-.693.246-1.383c.57-3.23,1.243-6.44,1.921-9.648a171.008,171.008,0,0,0,3.547-20.814c.3-3.525.1-7.081.464-10.6.17-1.633.371-5.278,2.545-5.423,1.842-.123,3.738,0,5.585,0a.368.368,0,1,0,0-.737c-1.744,0-3.49-.047-5.234-.012a2.49,2.49,0,0,0-2.518,1.363c-1.412,2.736-1.267,6.386-1.312,9.373a113.726,113.726,0,0,1-2.633,21.14c-.72,3.52-1.5,7.027-2.211,10.549-.336,1.682-.658,3.37-.953,5.062-.138.806-.833,2.581-.221,3.321s2.493.341,3.336.346l5.861.034,11.23.064c7.256.042,14.536.246,21.789.032a50.956,50.956,0,0,0,10.5-1.073,1.681,1.681,0,0,0,1.528-1.778c.059-1.66-.211-3.372-.246-5.04-.246-14.27,3.107-28.342,2.763-42.617-.022-.97.344-3.417-.717-4a2.679,2.679,0,0,0-1.6-.061c-.958.111-1.913.246-2.871.359l-12.441,1.552c-3.977.491-7.951,1.022-11.935,1.474a42.273,42.273,0,0,1-12.679,0c-.464-.086-.663.624-.2.71Z" transform="translate(-251.606 -216.756)" fill="#ee1800"/>
    <path id="Path_159" data-name="Path 159" d="M318.911,307.072l49.08-2.407c.474-.025.477-.761,0-.737l-49.08,2.407C318.439,306.357,318.437,307.094,318.911,307.072Z" transform="translate(-271.216 -246.716)" fill="#ee1800"/>
    <path id="Path_160" data-name="Path 160" d="M380.531,284.708a1.228,1.228,0,0,0,.435,1.982,3.228,3.228,0,0,0,2.093-.115c.982-.246,1.965-.464,2.974-.644a40.558,40.558,0,0,1,6.654-.619c1.017-.012,2.026.034,3.043.079a3.287,3.287,0,0,0,2.154-.368,1.391,1.391,0,0,0,.246-2.171c-.982-.9-3.1-.376-4.234-.282a94.959,94.959,0,0,0-12.247,1.827c-.462.1-.268.811.2.71q4-.862,8.054-1.385,1.994-.246,4-.415c.629-.052,1.258-.1,1.886-.135.246-.015.506-.042.757-.034.779.017.87-.123.4.818-.415.833-.282.737-1,.71-.3,0-.609-.034-.914-.049q-.936-.039-1.872-.042-1.992,0-3.974.192c-1.12.108-2.238.26-3.345.457-.693.123-1.38.265-2.066.422-.3.071-.607.145-.909.221-.145.039-.292.074-.437.111q-.806.28-1.373-.737c.329-.341-.189-.865-.521-.521Z" transform="translate(-317.717 -230.426)" fill="#ee1800"/>
    <path id="Path_161" data-name="Path 161" d="M381.816,332.937c-3.554-.138-7.393.823-9.734,3.684-1.832,2.238-2.876,6.077-.936,8.6,2.085,2.7,6.659,2.225,9.417,1.073,2.918-1.228,6.111-3.76,6.988-6.929,1.093-3.957-2.456-6.949-6.153-6.993a.369.369,0,0,0,0,.737A5.622,5.622,0,0,1,386.557,336c1.029,2.068.142,4.239-1.228,5.895a12.172,12.172,0,0,1-9.127,4.566c-2.1-.032-4.421-.752-5.072-2.967a6.857,6.857,0,0,1,.806-5.35c2.019-3.439,6.128-4.6,9.9-4.456.474.017.474-.72,0-.737Z" transform="translate(-310.105 -268.172)" fill="#ee1800"/>
    <path id="Path_162" data-name="Path 162" d="M399.446,349.342a.958.958,0,0,0-1.287.982c.074.958,1.13,1.228,1.923,1.172.685-.059,1.486-.312,1.245-1.169a1.1,1.1,0,0,0-.6-.693,1.388,1.388,0,0,0-.693-.086c-.091,0-.924.3-.57-.061l-.58-.076a.6.6,0,0,1,.177.491.371.371,0,0,0,.553.317.491.491,0,0,1,.666.575.371.371,0,0,0,.673.285c.246-.442.543-1.321.174-1.783a.786.786,0,0,0-1.014-.037,3.552,3.552,0,0,0-.506.435c-.3.263-.491.386-.381-.118a3.185,3.185,0,0,1,1.857-2.012l-.54-.415a7.767,7.767,0,0,1-1.486,2.911l.629.26a1.641,1.641,0,0,1,1-1.6h-.361l.192.314c-.071.464.639.663.71.194.093-.607-.29-1.4-1-1.1a2.313,2.313,0,0,0-1.27,2.188c0,.295.418.523.631.263a8.66,8.66,0,0,0,1.673-3.24.373.373,0,0,0-.543-.415,4.119,4.119,0,0,0-1.788,1.557c-.3.491-.675,1.258-.371,1.823a.781.781,0,0,0,1.068.3,2.873,2.873,0,0,0,.616-.491c.091-.081.192-.221.312-.246.108-.074.1-.032-.017.13a1.339,1.339,0,0,1-.214.717L401,351a1.228,1.228,0,0,0-1.746-1.407l.555.319a1.339,1.339,0,0,0-.278-.867.373.373,0,0,0-.577-.076.964.964,0,0,0,.025,1.427c.351.268.523,0,.909-.061,1.309-.169.545.42.083.44a1.742,1.742,0,0,1-.617-.044q-.769-.26-.1-.671c.44.179.629-.533.2-.71Z" transform="translate(-331.264 -279.12)" fill="#ee1800"/>
    <path id="Path_163" data-name="Path 163" d="M389.749,360.987c.3.982-.946,1.307-1.538,1.646a3.424,3.424,0,0,0-1.064.931,7.111,7.111,0,0,0-1.054,2.881c-.093.464.617.661.712.2a8.35,8.35,0,0,1,.621-2.12,3.743,3.743,0,0,1,1.9-1.626,1.785,1.785,0,0,0,1.13-2.1C390.321,360.339,389.609,360.533,389.749,360.987Z" transform="translate(-322.159 -289.419)" fill="#ee1800"/>
    <path id="Path_164" data-name="Path 164" d="M393.935,360.37a.712.712,0,0,0-.614.737c0,.292.194.479.327.712a5.625,5.625,0,0,1,.712,1.55,3.344,3.344,0,0,1-.042,1.965c-.508.911-1.427.737-2.211.737-.737,0-1.307.246-1.282-.781a3.267,3.267,0,0,1,.737-1.616l-.673-.088a12.836,12.836,0,0,1,.224,2.274c0,.341.523.531.685.184a14.228,14.228,0,0,0,.936-2.589l-.725-.1.128,1.867a.371.371,0,0,0,.685.187.835.835,0,0,0,.184-.332c.025-.115-.2-.894-.292-.617l.722.1.052-1.773-.737.1a3.67,3.67,0,0,1,.138,1.547c-.047.41.643.5.737.1l.462-2.383-.673.086a1.628,1.628,0,0,1,.125,1.061c-.054.472.683.467.737,0a2.589,2.589,0,0,0-.226-1.432.371.371,0,0,0-.673.088l-.464,2.383.725.1a4.018,4.018,0,0,0-.165-1.741.368.368,0,0,0-.722.1l-.052,1.773a.37.37,0,0,0,.725.1l.039-.12a.373.373,0,0,0-.093-.359c-.764-.83-.919.491-1.184.857l.688.187-.128-1.867a.371.371,0,0,0-.725-.1,13.2,13.2,0,0,1-.86,2.414l.688.187a13.886,13.886,0,0,0-.246-2.471c-.064-.339-.508-.324-.673-.088-.491.707-1.341,2.252-.685,3.1.572.737,2.373.452,3.141.405,1.213-.069,1.653-.838,1.786-1.982a4.853,4.853,0,0,0-.091-1.641c-.066-.29-.737-2.127-.938-2.09.467-.086.268-.8-.2-.712Z" transform="translate(-325.118 -289.295)" fill="#ee1800"/>
    <path id="Path_165" data-name="Path 165" d="M393.542,363.994l-2.012,2.655.636.371,1.474-2.132-.673-.285-.734,2.8a.371.371,0,0,0,.673.285,12.947,12.947,0,0,1,1.122-1.579l-.614-.359a4.011,4.011,0,0,1-.926,1.7l.616.359a3.292,3.292,0,0,1,.268-.982c.189-.425-.41-.8-.636-.373a8.653,8.653,0,0,1-.71,1.115l.673.088.15-.7-.673-.088.108.614a.371.371,0,0,0,.616.162,7.334,7.334,0,0,0,1.474-2.223h-.634a3.309,3.309,0,0,1,.346.982c.088.442.675.278.722-.1a19.966,19.966,0,0,0,.162-2.481h-.737v1.545c0,.4.656.518.725.1a2.816,2.816,0,0,1,.361-1.056h-.646a1.638,1.638,0,0,1,.246.835.368.368,0,0,0,.737,0l.093-.491h-.71c.071.435.341,2.884-.619,2.6-.162-.039-.209-.029-.14.027l.219-.467.513-1.088-.688-.187a2.7,2.7,0,0,1-.214,1.66,1.272,1.272,0,0,1-1.388.285,2.456,2.456,0,0,1-.641-.673l-.5.491c.408.3,1.068,1.027,1.594,1.068.4.032.737-.3,1-.565a4.281,4.281,0,0,0,1.2-3.151.368.368,0,1,0-.737,0v.84a.368.368,0,0,0,.737,0v-2.061a.368.368,0,1,0-.737,0,8.844,8.844,0,0,1-.128,1.474l.725.1a16.968,16.968,0,0,1-.081-1.766.368.368,0,0,0-.722-.1c-.111.469-.246.931-.376,1.39l.673-.088-.052-.2c-.034-.469-.771-.472-.737,0a1.348,1.348,0,0,0,.152.57.372.372,0,0,0,.673-.088c.14-.462.265-.924.376-1.39l-.725-.1a16.977,16.977,0,0,0,.081,1.766c.037.378.646.54.722.1a10.152,10.152,0,0,0,.155-1.68h-.737v2.061h.737v-.84h-.737a3.542,3.542,0,0,1-.9,2.525,3.016,3.016,0,0,1-.309.3c-.174.167-.334.142-.474-.076a6.139,6.139,0,0,1-1.014-.737c-.3-.219-.722.214-.506.5.565.752,1.407,1.589,2.456,1.228,1.1-.391,1.253-1.884,1.169-2.866-.027-.327-.516-.548-.685-.184-.246.518-.491,1.034-.737,1.555a1.374,1.374,0,0,0-.221.648c.081.553.752.462,1.164.43,1.6-.12,1.346-2.387,1.162-3.527-.061-.378-.612-.319-.71,0a2.169,2.169,0,0,0-.12.7h.737a2.921,2.921,0,0,0-.346-1.206.371.371,0,0,0-.636,0,3.581,3.581,0,0,0-.437,1.228l.737.1v-1.545a.368.368,0,0,0-.737,0,19.961,19.961,0,0,1-.162,2.481l.725-.1a4.217,4.217,0,0,0-.42-1.15.371.371,0,0,0-.636,0,6.72,6.72,0,0,1-1.358,2.073l.617.162-.108-.614c-.057-.327-.518-.336-.673-.088a1.616,1.616,0,0,0-.224,1.267c.061.349.5.312.673.088a8.623,8.623,0,0,0,.71-1.113l-.636-.373a4.19,4.19,0,0,0-.344,1.157c-.044.324.341.663.617.359a4.912,4.912,0,0,0,1.115-2.029c.091-.334-.371-.651-.617-.359a14.075,14.075,0,0,0-1.228,1.719l.673.285.749-2.793a.371.371,0,0,0-.673-.285l-1.474,2.134c-.275.4.356.737.636.371l2-2.653c.285-.378-.354-.737-.636-.373Z" transform="translate(-326.151 -291.264)" fill="#ee1800"/>
    <path id="Path_166" data-name="Path 166" d="M526.062,323.584c2.947-1.8,5.291-4.492,7.894-6.742,2.825-2.439,5.789-4.711,8.842-6.863,5.929-4.176,12.156-7.911,18.377-11.637a.368.368,0,0,0-.371-.636c-6.221,3.726-12.45,7.455-18.38,11.637-2.8,1.965-5.529,4.048-8.147,6.258-2.849,2.407-5.386,5.4-8.6,7.346-.405.246-.034.884.371.636Z" transform="translate(-427.336 -241.989)" fill="#ee1800"/>
    <path id="Path_167" data-name="Path 167" d="M679.164,253.843c-3.193.324-6.632,1.137-8.6,3.93a8.927,8.927,0,0,0-.066,9.058c1.81,2.8,5.509,2.9,8.383,2s5.848-2.5,5.821-5.929a14.329,14.329,0,0,0-1.415-5.431c-.634-1.442-1.756-2.7-3.456-2.542-.469.044-.474.781,0,.737,2.277-.211,3.009,2.493,3.549,4.2.491,1.594.946,3.48.174,5.065s-2.631,2.392-4.22,2.972a8.826,8.826,0,0,1-5.4.491c-3.557-.995-4.539-5.5-3.515-8.7,1.179-3.684,5.354-4.767,8.756-5.111.467-.047.472-.784,0-.737Z" transform="translate(-535.811 -208.932)" fill="#ee1800"/>
    <path id="Path_168" data-name="Path 168" d="M699.164,369.844c-3.193.324-6.632,1.137-8.6,3.93a8.927,8.927,0,0,0-.066,9.058c1.81,2.8,5.509,2.9,8.383,2s5.848-2.5,5.821-5.929a14.329,14.329,0,0,0-1.415-5.431c-.634-1.442-1.756-2.7-3.456-2.542-.469.044-.474.781,0,.737,2.277-.211,3.009,2.493,3.549,4.2.491,1.594.946,3.48.174,5.065s-2.631,2.392-4.22,2.972a8.826,8.826,0,0,1-5.4.491c-3.557-.995-4.539-5.5-3.515-8.7,1.179-3.684,5.355-4.767,8.756-5.111.467-.047.472-.784,0-.737Z" transform="translate(-550.898 -296.44)" fill="#ee1800"/>
    <path id="Path_169" data-name="Path 169" d="M689.577,244.474l2.326,2.653a.371.371,0,0,0,.614-.165,14.218,14.218,0,0,0,.513-3.989,13.132,13.132,0,0,1,1.044-4.07,13.737,13.737,0,0,1,5.5-6.3c.405-.246.034-.884-.371-.636a14.423,14.423,0,0,0-5.558,6.106,14.116,14.116,0,0,0-1.228,3.9c-.246,1.594-.022,3.264-.612,4.794l.617-.165-2.314-2.648c-.314-.356-.833.167-.521.521Z" transform="translate(-551.04 -192.388)" fill="#ee1800"/>
    <path id="Path_170" data-name="Path 170" d="M531.505,411.49q19-.58,38.017-.246a.369.369,0,0,0,0-.737q-19.009-.339-38.017.246C531.031,410.768,531.029,411.505,531.505,411.49Z" transform="translate(-431.592 -327.024)" fill="#ee1800"/>
    <path id="Path_171" data-name="Path 171" d="M697.438,383.046a76.126,76.126,0,0,1,12.446,6.253c.4.246.774-.386.371-.636a76.932,76.932,0,0,0-12.61-6.327c-.44-.174-.631.538-.194.71Z" transform="translate(-556.861 -305.845)" fill="#ee1800"/>
    <path id="Path_172" data-name="Path 172" d="M707.992,371.346a30.088,30.088,0,0,0-7.224,18.306c-.02.474.717.474.737,0a29.263,29.263,0,0,1,7.008-17.785C708.82,371.508,708.3,370.985,707.992,371.346Z" transform="translate(-559.55 -297.484)" fill="#ee1800"/>
    <path id="Path_173" data-name="Path 173" d="M329.108,400.368l27.453-.359,3.156-.042c.567,0,1.135-.02,1.7-.022a1.354,1.354,0,0,1,1.321,1.474c-.037,1.719-1.118,1.658-2.532,1.719l-3.412.155L342.9,403.9c-2.488.111-4.979.246-7.467.332-2.245.069-6.514-.663-5.517-3.93.138-.454-.572-.648-.712-.2a3.62,3.62,0,0,0,1.778,4.08c1.987,1.194,4.605.788,6.8.69l17.056-.774,4.141-.184c1.061-.049,2.537.167,3.512-.327,1.145-.577,1.346-2.869.624-3.834a1.707,1.707,0,0,0-1.474-.558c-1.528-.059-3.083.042-4.613.061l-8.5.113-19.431.246a.369.369,0,0,0,0,.737Z" transform="translate(-278.901 -318.577)" fill="#ee1800"/>
    <g id="Michel" transform="translate(157.673 55.171)">
      <path id="Path_174" data-name="Path 174" d="M771.212,755.52c-.619.388-1.326.607-1.965.948a2.689,2.689,0,0,0-1.442,1.562.982.982,0,0,0,.032.668,1.3,1.3,0,0,0,.688.545,10.436,10.436,0,0,0,8.255.093,10.87,10.87,0,0,1,1.425-.565,9.252,9.252,0,0,1,1.825-.187,14.028,14.028,0,0,0,1.918-.246,1.688,1.688,0,0,0,.87-.361,1.614,1.614,0,0,0,.391-.938,7.725,7.725,0,0,0-1.228-5.472,1.848,1.848,0,0,0-.535-.567,2.066,2.066,0,0,0-.852-.228c-1.228-.15-2.515-.425-3.756-.454a2.522,2.522,0,0,0-1.965,1.014C773.573,752.632,772.814,754.521,771.212,755.52Z" transform="translate(-767.762 -638.635)" fill="#323444"/>
      <path id="Path_175" data-name="Path 175" d="M855.056,754.978a5.615,5.615,0,0,0,.874,3.439,4.544,4.544,0,0,0,1.194,1.044,5.377,5.377,0,0,0,5.212.511,1.547,1.547,0,0,0,.648-.545,1.858,1.858,0,0,0-.022-1.432l-2.353-8.155c-1.52.233-3.755.4-5.106,1.169C854.523,751.567,855.056,753.9,855.056,754.978Z" transform="translate(-833.505 -638.275)" fill="#323444"/>
      <path id="Path_176" data-name="Path 176" d="M772.5,559.523c-.143.45-.658.658-.941,1.036a1.968,1.968,0,0,0-.177,1.6,4.235,4.235,0,0,0,1.078,2.125,2.547,2.547,0,0,0,2.211.752,1.842,1.842,0,0,0,1.5-1.653,3.13,3.13,0,0,0-.231-1.063l-1.675-4.844a.183.183,0,0,0-.3-.133c-.4.187-1.189.383-1.42.793S772.662,559.078,772.5,559.523Z" transform="translate(-770.425 -493.031)" fill="#fbb3b2"/>
      <path id="Path_177" data-name="Path 177" d="M773,553.019a7.945,7.945,0,0,0,1.719-.69,1.774,1.774,0,0,1,1.771.066c.138.113.27.268.45.265a17.585,17.585,0,0,0-1.1-3.5.273.273,0,0,0-.1-.135.278.278,0,0,0-.209,0l-1.653.432c-.612.16-.683.111-.636.712C773.258,550.44,773.4,553.019,773,553.019Z" transform="translate(-771.713 -486.771)" fill="#323444"/>
      <path id="Path_178" data-name="Path 178" d="M769.226,422.642a2.328,2.328,0,0,0-.246,1.294,44,44,0,0,0,.344,6.511c.076.516.172,1.032.221,1.552a17.9,17.9,0,0,1,.034,2.179l-.246,9.456a5.467,5.467,0,0,1-.8,3.309,1.582,1.582,0,0,0-.287,1.049c.187,2.373.58,4.726.97,7.071a4.37,4.37,0,0,1,3.964.189,43.639,43.639,0,0,0,2.036-12.035,47.777,47.777,0,0,1,.28-6.023,38.317,38.317,0,0,0-.074-10.142,5.6,5.6,0,0,0-1.059-2.989,4.532,4.532,0,0,0-2.456-1.415A10.744,10.744,0,0,0,769.226,422.642Z" transform="translate(-768.121 -391.37)" fill="#5b5583"/>
      <path id="Path_179" data-name="Path 179" d="M769.226,422.642a2.328,2.328,0,0,0-.246,1.294,44,44,0,0,0,.344,6.511c.076.516.172,1.032.221,1.552a17.9,17.9,0,0,1,.034,2.179l-.246,9.456a5.467,5.467,0,0,1-.8,3.309,1.582,1.582,0,0,0-.287,1.049c.187,2.373.58,4.726.97,7.071a4.37,4.37,0,0,1,3.964.189,43.639,43.639,0,0,0,2.036-12.035,47.777,47.777,0,0,1,.28-6.023,38.317,38.317,0,0,0-.074-10.142,5.6,5.6,0,0,0-1.059-2.989,4.532,4.532,0,0,0-2.456-1.415A10.744,10.744,0,0,0,769.226,422.642Z" transform="translate(-768.121 -391.37)" opacity="0.1"/>
      <path id="Path_180" data-name="Path 180" d="M782.014,524.43a43.379,43.379,0,0,0,2.584,25.112,6.812,6.812,0,0,1,.6,1.857,9.677,9.677,0,0,1-.737,3.525c-.737,2.648-.312,5.467.16,8.177q.295,1.695.607,3.387a5.176,5.176,0,0,1-.111,3.294c.44,1.832.7,3.647,1.14,5.48a1.042,1.042,0,0,1,.042.449,1.324,1.324,0,0,1-.449.6,2.687,2.687,0,0,0-.685,2.572c1.122-.806,2.687-.523,3.969,0a10.758,10.758,0,0,0,3.93,1.228,9.95,9.95,0,0,1,.2-4.858,7.361,7.361,0,0,0,.946-2.665,19.969,19.969,0,0,0-.661-2.441,6.182,6.182,0,0,1,.059-1.562,39.05,39.05,0,0,0-.418-9.044,5.4,5.4,0,0,0-.413-1.719,2.54,2.54,0,0,1-.43-1.088c0-.459.371-.833.508-1.27.246-.806-.206-1.9.474-2.4,1.793-1.317,1.105-4.46,1.066-6.683q-.047-2.876-.246-5.747a24.48,24.48,0,0,1,1.356,9.908,7.092,7.092,0,0,0,.206,3.274,13.67,13.67,0,0,1,1.159,2.252,9.431,9.431,0,0,1,.057,1.56,1.607,1.607,0,0,0,.651,1.351c.034,2.368.246,4.9.282,7.268a17.936,17.936,0,0,0,.295,3.611,4.6,4.6,0,0,1,.182,1.164,4.863,4.863,0,0,1-.388,1.432,8.211,8.211,0,0,0,1.228,7.577,3.662,3.662,0,0,1,2.967-1.66,10.764,10.764,0,0,1,3.485.511,6.826,6.826,0,0,1,.815-4.151,3.394,3.394,0,0,0,.43-.924,4.089,4.089,0,0,0-.344-1.862,9.361,9.361,0,0,1-.113-3.068,48.545,48.545,0,0,0-.454-10.3,8.721,8.721,0,0,0-.469-1.965c-.088-.226-.2-.442-.27-.671a5.289,5.289,0,0,1-.2-1.258l-.282-3.93c-.2-2.753.7-5.472,1.336-8.159.282-1.2.589-2.4.779-3.628.258-1.665.3-3.367.678-5.011a32.31,32.31,0,0,0,1.078-4.421c.2-2.341-.776-4.6-1.719-6.75-.393-.884-1.879-.8-2.834-.953-6.777-1.113-13.914-1.12-20.305,1.388A5.053,5.053,0,0,0,782.014,524.43Z" transform="translate(-777.907 -465.734)" fill="#3c354c"/>
      <path id="Path_181" data-name="Path 181" d="M801.3,350.876l.752,2.923a7.812,7.812,0,0,1,.337,2.066,1.526,1.526,0,0,1-.165.737,1.756,1.756,0,0,1-.467.477c-.513.391-.87,1.3-1.457,1.572.3.526.72.184,1.265.447a13.729,13.729,0,0,0,2.881,1.368,6.427,6.427,0,0,0,2.989-.246,10.322,10.322,0,0,0,3.871-1.8,3.716,3.716,0,0,0,1.741-3.139c-1.228.145-2.321-1.1-2.864-2.211a6.007,6.007,0,0,1-.413-1.324l-.658-2.9a14.2,14.2,0,0,0-1.987.938,7.213,7.213,0,0,1-2.257.327,24.314,24.314,0,0,0-4.018.521c-.182.037-.41.152-.366.329" transform="translate(-792.308 -335.776)" fill="#fbb3b2"/>
      <path id="Path_182" data-name="Path 182" d="M801.3,350.876l.752,2.923a7.812,7.812,0,0,1,.337,2.066,1.526,1.526,0,0,1-.165.737,1.756,1.756,0,0,1-.467.477c-.513.391-.87,1.3-1.457,1.572.3.526.72.184,1.265.447a13.729,13.729,0,0,0,2.881,1.368,6.427,6.427,0,0,0,2.989-.246,10.322,10.322,0,0,0,3.871-1.8,3.716,3.716,0,0,0,1.741-3.139c-1.228.145-2.321-1.1-2.864-2.211a6.007,6.007,0,0,1-.413-1.324l-.658-2.9a14.2,14.2,0,0,0-1.987.938,7.213,7.213,0,0,1-2.257.327,24.314,24.314,0,0,0-4.018.521c-.182.037-.41.152-.366.329" transform="translate(-792.308 -335.776)" opacity="0.1"/>
      <circle id="Ellipse_23" data-name="Ellipse 23" cx="6.504" cy="6.504" r="6.504" transform="translate(5.715 3.704)" fill="#fbb3b2"/>
      <path id="Path_183" data-name="Path 183" d="M801.6,366.648a5.9,5.9,0,0,1,1.474-1.965c.916-.8,2.169-1.454,2.385-2.653l1.985,2.311a1.068,1.068,0,0,1,.246.378.953.953,0,0,1-.187.764,7.955,7.955,0,0,1-2,1.911,60.657,60.657,0,0,0-4.812,4.244.492.492,0,0,1-.258.157.464.464,0,0,1-.268-.076,11.173,11.173,0,0,1-3.431-2.79c-.071-.086-.16-.184-.275-.177a.354.354,0,0,0-.184.1,3.331,3.331,0,0,1-2.23,1.1,5.283,5.283,0,0,0,1.95-3.439,6.5,6.5,0,0,1,.28-1.344,1.4,1.4,0,0,1,.958-.909,2.155,2.155,0,0,0,.55,2.638,5.423,5.423,0,0,0,2.437,1.181C801.06,368.237,801.306,367.291,801.6,366.648Z" transform="translate(-787.593 -345.719)" fill="#323444"/>
      <path id="Path_184" data-name="Path 184" d="M780.959,522.743c.926.228,1.8.617,2.7.9a12.913,12.913,0,0,0,5.072.533,2.738,2.738,0,0,0,1.474-.469c.115-.093.221-.2.344-.29a2.4,2.4,0,0,1,.661-.273,18.707,18.707,0,0,0,5.969-3.714c.059-.049.125-.11.12-.189a.246.246,0,0,0-.074-.14L796.264,518a39.807,39.807,0,0,1-7.673.2,11.14,11.14,0,0,0-1.577.042c-.506.059-1,.187-1.5.295-1.894.413-3.829.57-5.747.84a.887.887,0,0,0-.381.118.855.855,0,0,0-.2.226l-.673.946a2.974,2.974,0,0,0-.565,1.083c-.157.737.172.982.8.887A5.83,5.83,0,0,1,780.959,522.743Z" transform="translate(-775.411 -463.379)" fill="#323444"/>
      <path id="Path_185" data-name="Path 185" d="M783.136,377.678A11.966,11.966,0,0,0,780.6,375.7a3.588,3.588,0,0,0-1.228-.491,1.532,1.532,0,0,0-1.258.309c-.219.194-.356.464-.567.668a2.821,2.821,0,0,1-.9.508,15.945,15.945,0,0,0-3.159,1.8,7.244,7.244,0,0,0-1.432,1.321,8.081,8.081,0,0,0-1.25,5.17c.022,1.258,1.228,2.191,2.058,3.132a23.078,23.078,0,0,1,2.107,2.947,4.014,4.014,0,0,1,.857,2.316,13.144,13.144,0,0,0-.386,2.026c.022.246.1.472.123.71a7.982,7.982,0,0,1-.2,1.474,18.738,18.738,0,0,0,.172,2.085,6.632,6.632,0,0,1-.182,1.422,26.566,26.566,0,0,0-.943,6.794l-1.361.246a1.149,1.149,0,0,1-.263,1.835c2.125.71,4.421.351,6.674.349,1.864,0,3.721.246,5.583.211a9.65,9.65,0,0,0,5.318-1.425c.418-.285.8-.619,1.24-.867a6.119,6.119,0,0,1,1.879-.614,18.644,18.644,0,0,1,3.684-.329,2.837,2.837,0,0,0,1.744-.339,2.492,2.492,0,0,0,.737-1.793c.071-.7.115-1.4.128-2.1a9.036,9.036,0,0,0-.086-1.631,10.682,10.682,0,0,0-.287-1.169l-.926-3.262c-.383-1.346.15-2.822.263-4.217a1.058,1.058,0,0,0-.221-.924c-.091-.076-.216-.128-.246-.246a.42.42,0,0,1,.059-.329,18.185,18.185,0,0,1,1.9-2.736,55.933,55.933,0,0,0,3.144-4.831,15.545,15.545,0,0,0-4.161-9.3,4.5,4.5,0,0,0-1.741-1.285,5.157,5.157,0,0,0-1.385-.224,12.758,12.758,0,0,1-5.607-1.213,1.067,1.067,0,0,0-.4-.169c-.371-.042-.641.324-.882.614a10.571,10.571,0,0,1-2.331,1.7A16.529,16.529,0,0,0,783.136,377.678Z" transform="translate(-770.06 -352.883)" fill="#5b5583"/>
      <path id="Path_186" data-name="Path 186" d="M874.689,416.68a18.449,18.449,0,0,1,.472,3.775,14.682,14.682,0,0,0,.4,2.262,3.609,3.609,0,0,0,.467,1.152,5.068,5.068,0,0,1,.678.953,2.3,2.3,0,0,1,.1.766l.029,1.695a6.094,6.094,0,0,1-.4,2.638l-1.059,3.22a19.735,19.735,0,0,1-2.191,5.033,1.451,1.451,0,0,1-.631.592,3.065,3.065,0,0,1-.636.1,1.636,1.636,0,0,0-1.348,1.589,3.732,3.732,0,0,0-.906-.926l-2.154-1.719a9.209,9.209,0,0,0-2.4-1.555,6.506,6.506,0,0,0,4.524-5.467,2.456,2.456,0,0,1,.246-1.076c.179-.29.511-.511.535-.852.029-.43-.457-.754-.457-1.184,0-.285.211-.521.3-.788a1.98,1.98,0,0,0,0-1.009l-.3-1.651a1.26,1.26,0,0,0-.147-.472,3.049,3.049,0,0,0-.368-.388c-.511-.572-.285-1.474,0-2.179a20.822,20.822,0,0,1,2.51-4.4,15.045,15.045,0,0,0,1-1.43c.26-.452.319-1.078.594-1.474C873.908,414.808,874.387,415.725,874.689,416.68Z" transform="translate(-841.199 -384.833)" fill="#5b5583"/>
      <path id="Path_187" data-name="Path 187" d="M860.523,504.689a1.184,1.184,0,0,0-.28.295,2.483,2.483,0,0,1-1.113.793c.246.177.469.351.7.531a30.68,30.68,0,0,1,4.667,4.463c.155-.553,1.081-.513,1.307-1.041a1.02,1.02,0,0,0,.049-.472,14.392,14.392,0,0,0-.354-2.456,2.78,2.78,0,0,0-.491-1.15,2.948,2.948,0,0,0-1.39-.786C862.844,504.6,861.309,504.215,860.523,504.689Z" transform="translate(-836.688 -453.168)" fill="#323444"/>
      <path id="Path_188" data-name="Path 188" d="M840.1,510.827a12.932,12.932,0,0,1-2.211,1.6,8.321,8.321,0,0,0-1.761.776,1.75,1.75,0,0,0,1.67.9,3.97,3.97,0,0,0,1.869-.685c.44-.27.955-.585,1.434-.4.074.373-.246.725-.246,1.1a1.112,1.112,0,0,0,.624.852c1.474.951,3.37.872,5.126.761a.462.462,0,0,0,.282-.083.445.445,0,0,0,.106-.324c.022-.388.032-.774.034-1.162a1.665,1.665,0,0,0-.712-1.641,20.043,20.043,0,0,0-3.07-2.174A2.75,2.75,0,0,0,840.1,510.827Z" transform="translate(-819.337 -457.376)" fill="#fbb3b2"/>
      <path id="Path_189" data-name="Path 189" d="M821.332,326.058a1.706,1.706,0,1,0,2.174,1.434A1.853,1.853,0,0,0,821.332,326.058Zm.371,3.085a1.444,1.444,0,1,1,1.5-1.614,1.572,1.572,0,0,1-1.5,1.614Z" transform="translate(-806.828 -318.57)" fill="#3c354c"/>
      <path id="Path_190" data-name="Path 190" d="M799.692,328.658a1.706,1.706,0,1,0,2.174,1.432A1.852,1.852,0,0,0,799.692,328.658Zm.371,3.083a1.444,1.444,0,1,1,1.5-1.614A1.569,1.569,0,0,1,800.063,331.741Z" transform="translate(-790.504 -320.531)" fill="#3c354c"/>
      <path id="Path_191" data-name="Path 191" d="M662.978,259.64l2.37.506-.233.624-2.235-.656Z" transform="translate(-657.737 -251.039)" fill="#3c354c"/>
      <path id="Path_192" data-name="Path 192" d="M710.356,253.18l-2.186,1.054.376.55,2.017-1.167Z" transform="translate(-691.903 -246.165)" fill="#3c354c"/>
      <path id="Path_193" data-name="Path 193" d="M687.31,260.449l1.663-.2-.086.413-1.427.1Z" transform="translate(-676.167 -251.499)" fill="#3c354c"/>
      <path id="Path_194" data-name="Path 194" d="M787.6,304.014a2.639,2.639,0,0,0,.246-1.073,2.3,2.3,0,0,1,.113-.653,1.827,1.827,0,0,1,.535-.685,4.954,4.954,0,0,1,2.947-1.029,6.813,6.813,0,0,1,3.409.737,2.652,2.652,0,0,1,.847.629c.344.42.418.963.764,1.378a2.007,2.007,0,0,0,1.881.589,9.785,9.785,0,0,0,.025-1.317,6.373,6.373,0,0,1,.391-1.091,2.68,2.68,0,0,0-1.319-3.095,5.089,5.089,0,0,1-1.174-.737,5.554,5.554,0,0,1-.577-1.007,2.682,2.682,0,0,0-3.043-.882c-.339.128-.639.322-.982.459a8.1,8.1,0,0,1-2.068.4,6.334,6.334,0,0,0-2,.526,2.244,2.244,0,0,0-1.255,1.356c-.066.265-.052.54-.118.8-.339,1.334-2.527,1.982-2.65,3.343a1.951,1.951,0,0,0,.558,1.363c.231.273.784,1,1.174,1.108s.688-.265,1.061-.393C786.948,304.557,787.3,304.517,787.6,304.014Z" transform="translate(-779.68 -295.621)" fill="#cbceda"/>
    </g>
    <path id="Path_195" data-name="Path 195" d="M912.81,682c0,12.34,7.742,22.327,17.309,22.327" transform="translate(-719.51 -531.927)" fill="#46455b"/>
    <path id="Path_196" data-name="Path 196" d="M983.28,703.567c0-12.48,8.641-22.577,19.318-22.577" transform="translate(-772.671 -531.165)" fill="#ee1800"/>
    <path id="Path_197" data-name="Path 197" d="M938.35,686.56c0,11.723,4.937,21.209,11.036,21.209" transform="translate(-738.777 -535.367)" fill="#ee1800"/>
    <path id="Path_198" data-name="Path 198" d="M983.28,684.3c0-15.946,9.987-28.85,22.327-28.85" transform="translate(-772.671 -511.898)" fill="#46455b"/>
    <ellipse id="Ellipse_24" data-name="Ellipse 24" cx="4.303" cy="0.727" rx="4.303" ry="0.727" transform="translate(205.556 175.213)" fill="#ee1800" opacity="0.1"/>
    <path id="Path_199" data-name="Path 199" d="M968.46,769.477s2.456-.076,3.193-.6,3.775-1.157,3.959-.312,3.684,4.2.916,4.225-6.44-.432-7.177-.882S968.46,769.477,968.46,769.477Z" transform="translate(-761.491 -596.917)" fill="#a8a8a8"/>
    <path id="Path_200" data-name="Path 200" d="M976.58,776.559c-2.771.022-6.438-.432-7.177-.882-.562-.341-.786-1.572-.862-2.137h-.081s.155,1.98.894,2.429,4.406.9,7.177.882c.8,0,1.076-.292,1.061-.712C977.482,776.394,977.189,776.554,976.58,776.559Z" transform="translate(-761.491 -600.983)" opacity="0.2"/>
    <path id="Path_201" data-name="Path 201" d="M148.31,711.36c0,9.825,6.158,17.763,13.769,17.763" transform="translate(-142.786 -554.075)" fill="#46455b"/>
    <path id="Path_202" data-name="Path 202" d="M204.37,728.512c0-9.928,6.877-17.962,15.368-17.962" transform="translate(-185.077 -553.464)" fill="#ee1800"/>
    <path id="Path_203" data-name="Path 203" d="M168.62,715c0,9.333,3.93,16.874,8.781,16.874" transform="translate(-158.107 -556.821)" fill="#ee1800"/>
    <path id="Path_204" data-name="Path 204" d="M204.37,713.183c0-12.686,7.946-22.953,17.763-22.953" transform="translate(-185.077 -538.135)" fill="#46455b"/>
    <ellipse id="Ellipse_25" data-name="Ellipse 25" cx="3.424" cy="0.58" rx="3.424" ry="0.58" transform="translate(15.273 177.283)" fill="#ee1800" opacity="0.1"/>
    <path id="Path_205" data-name="Path 205" d="M192.58,780.9a6.984,6.984,0,0,0,2.54-.491c.587-.43,3.006-.921,3.151-.246s2.935,3.343.737,3.36a18.787,18.787,0,0,1-5.711-.7C192.71,782.471,192.58,780.9,192.58,780.9Z" transform="translate(-176.182 -605.73)" fill="#a8a8a8"/>
    <path id="Path_206" data-name="Path 206" d="M199.04,786.622a18.628,18.628,0,0,1-5.711-.7c-.447-.27-.624-1.25-.685-1.7h-.064s.123,1.574.71,1.933a18.684,18.684,0,0,0,5.711.7c.636,0,.857-.231.845-.567C199.757,786.482,199.514,786.608,199.04,786.622Z" transform="translate(-176.182 -609.039)" opacity="0.2"/>
  </g>
</svg>
